<?xml version="1.0" encoding="utf-8"?>
<!-- Generator: Adobe Illustrator 16.0.0, SVG Export Plug-In . SVG Version: 6.00 Build 0)  -->
<!DOCTYPE svg PUBLIC "-//W3C//DTD SVG 1.1//EN" "http://www.w3.org/Graphics/SVG/1.1/DTD/svg11.dtd">
<svg version="1.1" id="图层_1" xmlns="http://www.w3.org/2000/svg" xmlns:xlink="http://www.w3.org/1999/xlink" x="0px" y="0px"
	 width="23px" height="23px" viewBox="0 0 23 23" enable-background="new 0 0 23 23" xml:space="preserve">
<g>
	<g transform="scale(0.03125, 0.03125)">
		<path fill="#272636" d="M0,372.656C-1.844,170.547,161.188,4.531,363.344,2.688C565.469,0.844,731.469,163.828,733.313,366
			C735.156,568.25,572.125,734.125,370,735.969C167.859,737.813,1.844,574.906,0,372.656L0,372.656z M684.438,366.438
			C682.844,191.094,538.969,49.656,363.781,51.25C188.563,52.844,47.344,196.859,48.938,372.219
			c1.594,175.406,145.469,316.844,320.625,315.25C544.75,685.906,686.031,541.938,684.438,366.438L684.438,366.438z
			 M164.141,304.594c-0.047-4.719,1.625-9.375,5.25-12.969c7.063-7.188,18.625-7.313,25.875-0.25L367.5,459.469l169.156-171.094
			c7.063-7.156,18.625-7.25,25.969-0.25c7.188,7.063,7.281,18.594,0.25,25.781l-194.906,197L169.594,317.375
			C165.938,313.969,164.188,309.313,164.141,304.594L164.141,304.594z"/>
	</g>
</g>
</svg>
