<?xml version="1.0" encoding="utf-8"?>
<!-- Generator: Adobe Illustrator 16.0.0, SVG Export Plug-In . SVG Version: 6.00 Build 0)  -->
<!DOCTYPE svg PUBLIC "-//W3C//DTD SVG 1.1//EN" "http://www.w3.org/Graphics/SVG/1.1/DTD/svg11.dtd">
<svg version="1.1" id="图层_1" xmlns="http://www.w3.org/2000/svg" xmlns:xlink="http://www.w3.org/1999/xlink" x="0px" y="0px"
	 width="40px" height="40px" viewBox="0 0 40 40" enable-background="new 0 0 40 40" xml:space="preserve">
<g>
	<rect x="14.122" y="17.864" fill="none" width="6.86" height="1.244"/>
	<polygon fill="none" points="17.241,22.852 17.241,21.607 14.122,21.607 14.2,22.467 14.122,22.852 	"/>
	<path fill="none" d="M18.363,29.092h-6.117V12.237H25.98l0.021,4.784c0.337,0,0.887,0.083,1.221,0.083v-5.446
		c0-0.335-0.334-0.67-0.671-0.67h-14.88c-0.338,0-0.675,0.335-0.675,0.67v18.004c0,0.342,0.335,0.682,0.67,0.682h7.449
		c-0.334-0.424-0.373-0.916-0.627-1.252H18.363z"/>
	<polygon fill="none" points="22.865,14.741 14.122,14.741 14.2,15.093 14.122,15.985 22.865,15.985 	"/>
	<path fill="none" d="M27.941,22.969l-1.604-0.252l-0.758-1.424c-0.171-0.419-0.846-0.419-1.1,0l-0.758,1.424l-1.603,0.252
		c-0.253,0-0.422,0.168-0.507,0.418c-0.084,0.252,0,0.42,0.169,0.588l1.182,1.09l-0.17,1.678c0,0.25,0.084,0.418,0.254,0.586
		c0.168,0.168,0.423,0.168,0.675,0.084l1.436-0.754l1.433,0.754c0.084,0.084,0.168,0.084,0.255,0.084
		c0.168,0,0.252-0.084,0.336-0.084c0.17-0.168,0.252-0.336,0.252-0.586l-0.252-1.596l1.182-1.09c0.086-0.25,0.086-0.502,0.086-0.754
		C28.363,23.137,28.195,23.053,27.941,22.969z M26.004,24.561c-0.169,0.168-0.169,0.336-0.169,0.504l0.084,0.752l-0.591-0.418
		c-0.083-0.084-0.167-0.084-0.252-0.084s-0.169,0-0.253,0.084l-0.677,0.336l0.086-0.67c0-0.168,0-0.42-0.17-0.504l-0.506-0.504
		l0.76-0.082c0.168,0,0.338-0.168,0.422-0.336l0.338-0.67l0.336,0.67c0.085,0.168,0.254,0.252,0.422,0.336l0.759,0.082
		L26.004,24.561z"/>
	<path fill="none" d="M25.047,18.475c-3.22,0-5.931,2.628-5.931,5.934c0,3.307,2.626,5.934,5.931,5.934s5.932-2.627,5.932-5.934
		C31.063,21.104,28.354,18.475,25.047,18.475z M25.047,29.102c-2.585,0-4.686-2.1-4.686-4.684s2.101-4.683,4.686-4.683
		c2.584,0,4.686,2.099,4.686,4.683S27.631,29.102,25.047,29.102z"/>
</g>
<g>
	<path fill="#14DDB9" d="M25.413,23.648l-0.336-0.67l-0.339,0.67c-0.084,0.168-0.254,0.336-0.422,0.336l-0.76,0.082l0.506,0.504
		c0.17,0.084,0.17,0.336,0.17,0.504l-0.086,0.67l0.677-0.336c0.084-0.084,0.168-0.084,0.254-0.084c0.084,0,0.168,0,0.252,0.084
		l0.59,0.418l-0.084-0.752c0-0.168,0-0.336,0.17-0.504l0.588-0.504l-0.758-0.082C25.667,23.9,25.497,23.816,25.413,23.648z"/>
	<path fill="#14DDB9" d="M20-0.003C8.954-0.003-0.003,8.953-0.003,20c0,11.049,8.957,20.004,20.003,20.004
		c11.048,0,20.003-8.955,20.003-20.004C40.005,8.953,31.05-0.003,20-0.003z M11.667,30.354c-0.334,0-0.67-0.34-0.67-0.682V11.667
		c0-0.335,0.338-0.67,0.676-0.67h14.882c0.336,0,0.67,0.335,0.67,0.67v5.446c-0.334,0-0.884-0.083-1.22-0.083l-0.022-4.784H12.247
		v16.855h6.117h0.125c0.254,0.336,0.293,0.828,0.626,1.252H11.667L11.667,30.354z M14.122,21.617h3.119v1.244h-3.119l0.078-0.385
		L14.122,21.617z M14.122,19.117v-1.244h6.862v1.244H14.122z M14.122,15.994l0.078-0.892l-0.078-0.352h8.745v1.244H14.122z
		 M25.048,30.352c-3.305,0-5.933-2.627-5.933-5.934c0-3.305,2.712-5.934,5.933-5.934c3.306,0,6.015,2.629,5.931,5.934
		C30.979,27.725,28.352,30.352,25.048,30.352z"/>
	<path fill="#14DDB9" d="M25.048,19.744c-2.586,0-4.686,2.1-4.686,4.684s2.1,4.684,4.686,4.684c2.584,0,4.685-2.1,4.685-4.684
		S27.632,19.744,25.048,19.744z M28.363,24.15l-1.182,1.09l0.252,1.594c0,0.25-0.082,0.418-0.252,0.586
		c-0.084,0-0.168,0.084-0.336,0.084c-0.087,0-0.171,0-0.255-0.084l-1.432-0.754l-1.437,0.754c-0.252,0.084-0.507,0.084-0.675-0.084
		c-0.17-0.168-0.254-0.336-0.254-0.586l0.17-1.676l-1.182-1.09c-0.168-0.168-0.253-0.336-0.168-0.588
		c0.084-0.25,0.254-0.418,0.506-0.418l1.603-0.252l0.758-1.426c0.256-0.42,0.929-0.42,1.101,0l0.758,1.426l1.603,0.252
		c0.254,0.084,0.422,0.168,0.509,0.418C28.45,23.648,28.45,23.9,28.363,24.15z"/>
</g>
</svg>
