<?xml version="1.0" encoding="utf-8"?>
<!-- Generator: Adobe Illustrator 16.0.0, SVG Export Plug-In . SVG Version: 6.00 Build 0)  -->
<!DOCTYPE svg PUBLIC "-//W3C//DTD SVG 1.1//EN" "http://www.w3.org/Graphics/SVG/1.1/DTD/svg11.dtd">
<svg version="1.1" id="图层_1" xmlns="http://www.w3.org/2000/svg" xmlns:xlink="http://www.w3.org/1999/xlink" x="0px" y="0px"
	 width="80px" height="80px" viewBox="0 0 80 80" enable-background="new 0 0 80 80" xml:space="preserve">
<g>
	<g>
		<path fill-rule="evenodd" clip-rule="evenodd" fill="#FE943E" d="M52.522,48.962V36.11c0-4.912-2.785-10.963-7.726-13.057
			c-3.39-1.16-5.255-1.329-8.492-0.055c-5.065,1.919-7.873,8.137-7.873,13.124v12.839c0,0.199-0.049,0.399-0.147,0.574l-3.056,5.252
			c-0.074,0.125-0.062,0.275,0,0.388c0.062,0.101,0.185,0.175,0.32,0.175h29.918c0.209,0,0.369-0.175,0.369-0.375
			c-2.081-3.604-3.166-5.439-3.166-5.439C52.571,49.361,52.522,49.161,52.522,48.962z M42.475,18.952
			c-0.175-0.943-0.99-1.659-1.975-1.659c-0.982,0-1.798,0.713-1.975,1.654C40.045,18.778,41.407,18.831,42.475,18.952z
			 M40.508,61.738c2.445,0,3.757-1.132,4.272-3.469H36.22C36.748,60.606,38.063,61.738,40.508,61.738z M40,0C17.908,0,0,17.908,0,40
			s17.908,40,40,40s40-17.908,40-40S62.092,0,40,0z M57.146,58.27h-9.513c-0.54,3.612-3.439,6.73-7.139,6.73s-6.589-3.118-7.13-6.73
			h-9.512c-0.934,0-2.026-0.17-2.494-0.994c-0.479-0.825-0.479-1.851-0.012-2.676l4.408-6.907v-12.5
			c0-2.838,0.471-6.484,2.326-9.318c1.893-2.888,4.535-5.133,7.461-6.31c0.012,0,0.023-0.015,0.036-0.014
			c0.218-0.067,0.431-0.121,0.646-0.178c0-0.017-0.005-0.028-0.005-0.046c0-2.39,1.916-4.327,4.28-4.327s4.28,1.938,4.28,4.327
			c0,0.021-0.006,0.034-0.006,0.055c0.037,0.011,0.06,0.018,0.06,0.018c0.368,0.123,0.614,0.206,0.676,0.233
			c0.012,0,0.037,0,0.049,0.014c2.876,1.204,5.481,3.449,7.337,6.31c1.819,2.82,2.349,6.424,2.349,9.236v12.5l4.092,6.458
			c0.442,0.487,0.676,1.112,0.663,1.787C59.999,57.412,58.597,58.27,57.146,58.27z"/>
	</g>
</g>
</svg>
