<?xml version="1.0" encoding="utf-8"?>
<!-- Generator: Adobe Illustrator 16.0.0, SVG Export Plug-In . SVG Version: 6.00 Build 0)  -->
<!DOCTYPE svg PUBLIC "-//W3C//DTD SVG 1.1//EN" "http://www.w3.org/Graphics/SVG/1.1/DTD/svg11.dtd">
<svg version="1.1" id="图层_1" xmlns="http://www.w3.org/2000/svg" xmlns:xlink="http://www.w3.org/1999/xlink" x="0px" y="0px"
	 width="40px" height="40px" viewBox="0 0 40 40" enable-background="new 0 0 40 40" xml:space="preserve">
<circle fill="#14DDB9" cx="20" cy="20" r="20"/>
<path fill="#FFFFFF" d="M29.012,15.575v1.427h1.428L29.012,15.575L29.012,15.575z M31.152,18.144v5.709
	c0,0.285-0.285,0.569-0.57,0.569s-0.57-0.284-0.57-0.569v-5.709h-7.279v1.57c0,0.428-0.43,0.856-0.857,0.856h-1.57v5.281v3.142h3.71
	c0.43,0,0.856,0.428,0.856,0.856c0,0.426-0.429,0.854-0.856,0.854H12.311c-0.429,0-0.856-0.429-0.856-0.854
	c0-0.43,0.427-0.856,0.856-0.856h3.711v-3.142v-7.708h-4.567c-0.286,0-0.571-0.286-0.571-0.571V14.29c0-0.143,0-0.285,0.143-0.428
	l4.996-5.424l0,0c0.143-0.143,0.285-0.143,0.428-0.143c0.143,0,0.143,0,0.285,0l11.991,5.424l0,0l0,0l0,0l0,0l0,0l0,0l0,0l0,0l0,0
	l0,0l0,0l0,0l0,0l0,0l0,0l0,0l0,0l0,0l0,0l0,0l0,0l0,0l0,0l0,0l0,0l0,0l0,0l3.282,3.283c0.144,0.143,0.144,0.571,0,0.713
	c-0.142,0.144-0.284,0.144-0.429,0.144h-0.428V18.144L31.152,18.144z M20.875,14.861l1.713,1.713v-1.713H20.875L20.875,14.861z
	 M17.021,22.141h2.142v-1.427h-2.142V22.141z M19.02,15.575h-1.285v3.283h3.285v-1.285L19.02,15.575L19.02,15.575z M17.021,28.993
	h2.142v-2.571h-2.142V28.993z M17.021,13.862h1.856l-1.856-2.998V13.862L17.021,13.862z M26.158,13.862l-8.28-3.854l2.285,3.854
	H26.158L26.158,13.862z M16.022,10.15l-3.426,3.712h3.426V10.15L16.022,10.15z M23.588,17.002h2.141v-2.141h-2.141V17.002z
	 M26.729,17.002h1.283v-2.141h-1.283V17.002z M14.453,17.002h1.427v-2.141h-1.427V17.002z M11.882,17.002h1.571v-2.141h-1.571
	V17.002z M17.021,25.279h2.142v-2.139h-2.142V25.279z"/>
</svg>
