<?xml version="1.0" encoding="utf-8"?>
<!-- Generator: Adobe Illustrator 16.0.0, SVG Export Plug-In . SVG Version: 6.00 Build 0)  -->
<!DOCTYPE svg PUBLIC "-//W3C//DTD SVG 1.1//EN" "http://www.w3.org/Graphics/SVG/1.1/DTD/svg11.dtd">
<svg version="1.1" id="图层_1" xmlns="http://www.w3.org/2000/svg" xmlns:xlink="http://www.w3.org/1999/xlink" x="0px" y="0px"
	 width="80px" height="80px" viewBox="0 0 80 80" enable-background="new 0 0 80 80" xml:space="preserve">
<g>
	<g>
		<path fill-rule="evenodd" clip-rule="evenodd" fill="#4C8BF6" d="M27.378,34.911h-0.706L20,35v13l6.672,0.076h0.706l0.705,0.472
			l11.701,8.09L40,25l-12.034,9.438L27.378,34.911z M40,0C17.909,0,0,17.908,0,40s17.909,40,40,40c22.092,0,40-17.908,40-40
			S62.092,0,40,0z M43.4,57.978c0,1.445-1.2,2.409-2.4,2.409c-0.48,0-0.96-0.121-1.44-0.482L27,51h-7c-2.563,0.063-3-1.454-3-2.779
			V33.767c0-1.325,1.08-2.409,2.4-2.409h7.2l12.96-9.275c0.48-0.361,0.959-0.481,1.44-0.481c1.2,0,2.4,0.964,2.4,2.409V57.978z
			 M51.817,50.221c-2.115,1.097-2.645-1.188-1.898-2.467c4.286-4.592,0-9.829,0-9.829s-1.042-3.508,1.898-2.468
			C55.999,38.875,55.961,47.804,51.817,50.221z M54.61,57.283l-0.175-0.296C53.639,56.951,53,56.306,53,55.5
			c0-0.242,0.07-0.463,0.173-0.665l-0.075-0.127c0.097-0.052,0.184-0.122,0.279-0.176c0.188-0.218,0.432-0.368,0.715-0.45
			C57.617,51.732,60,47.444,60,42.5c0-4.926-2.357-9.216-5.86-11.573C53.49,30.763,53,30.2,53,29.5c0-0.828,0.672-1.5,1.5-1.5
			c0.351,0,0.659,0.139,0.915,0.341l0.112-0.19C59.909,30.459,63,36.01,63,42.5C63,49.436,59.473,55.304,54.61,57.283z"/>
	</g>
</g>
</svg>
