<?xml version="1.0" encoding="utf-8"?>
<!-- Generator: Adobe Illustrator 16.0.0, SVG Export Plug-In . SVG Version: 6.00 Build 0)  -->
<!DOCTYPE svg PUBLIC "-//W3C//DTD SVG 1.1//EN" "http://www.w3.org/Graphics/SVG/1.1/DTD/svg11.dtd">
<svg version="1.1" id="图层_1" xmlns="http://www.w3.org/2000/svg" xmlns:xlink="http://www.w3.org/1999/xlink" x="0px" y="0px"
	 width="16px" height="16px" viewBox="0 0 16 16" enable-background="new 0 0 16 16" xml:space="preserve">
<g>
	<g transform="scale(0.015625, 0.015625)">
		<path fill="#6BDDB4" d="M513.5,2.219C232.75,2.219,5.219,230,5.219,510.969S232.75,1019.75,513.5,1019.75
			c280.688,0,508.188-227.813,508.188-508.781S794.188,2.219,513.5,2.219z M721,538.906L541.375,718.688
			c-12.438,12.5-32.594,12.5-45,0c-12.375-12.375-12.375-32.375,0-44.875l131.063-131.031H291.094
			c-17.563,0-31.75-14.25-31.75-31.813s14.188-31.813,31.75-31.813h336.344L496.375,348.125c-12.375-12.406-12.375-32.563,0-44.969
			c12.406-12.469,32.563-12.469,45,0L721,483c7.688,7.625,10.125,18.063,8.313,27.969C731.125,520.844,728.688,531.313,721,538.906z
			"/>
	</g>
</g>
</svg>
