<?xml version="1.0" standalone="no"?><!DOCTYPE svg PUBLIC "-//W3C//DTD SVG 1.1//EN" "http://www.w3.org/Graphics/SVG/1.1/DTD/svg11.dtd"><svg width="16" height="16" viewBox="0 0 16 16" version="1.1" xmlns="http://www.w3.org/2000/svg" xmlns:xlink="http://www.w3.org/1999/xlink"><defs><style type="text/css"><![CDATA[
@font-face { font-family: ifont; src: url("http://at.alicdn.com/t/font_1442373896_4754455.eot?#iefix") format("embedded-opentype"), url("http://at.alicdn.com/t/font_1442373896_4754455.woff") format("woff"), url("http://at.alicdn.com/t/font_1442373896_4754455.ttf") format("truetype"), url("http://at.alicdn.com/t/font_1442373896_4754455.svg#ifont") format("svg"); }

]]></style></defs><g class="transform-group"><g transform="scale(0.015625, 0.015625)"><path d="M512 1015.657c-278.159 0-503.657-225.492-503.657-503.657 0-278.159 225.498-503.657 503.657-503.657 278.164 0 503.657 225.498 503.657 503.657 0 278.164-225.492 503.657-503.657 503.657zM794.677 364.233l-35.331-34.591c-19.517-19.103-51.156-19.103-70.669 0l-247.346 242.132-106.004-103.773c-19.517-19.103-51.156-19.103-70.669 0l-35.335 34.591c-19.517 19.103-19.517 50.078 0 69.182l141.335 138.354c0 0.004 0 0.004 0 0.004l35.335 34.591c19.517 19.103 51.156 19.103 70.673 0l318.009-311.31c19.518-19.108 19.518-50.077 0.001-69.181z" fill="#e1e069"></path></g></g></svg>