<?xml version="1.0" encoding="utf-8"?>
<!-- Generator: Adobe Illustrator 16.0.0, SVG Export Plug-In . SVG Version: 6.00 Build 0)  -->
<!DOCTYPE svg PUBLIC "-//W3C//DTD SVG 1.1//EN" "http://www.w3.org/Graphics/SVG/1.1/DTD/svg11.dtd">
<svg version="1.1" id="图层_1" xmlns="http://www.w3.org/2000/svg" xmlns:xlink="http://www.w3.org/1999/xlink" x="0px" y="0px"
	 width="16px" height="16px" viewBox="0 0 16 16" enable-background="new 0 0 16 16" xml:space="preserve">
<g>
	<g transform="scale(0.015625, 0.015625)">
		<path fill="#F87D7D" d="M510.094,0C228.375,0,0.031,228.344,0.031,510.031c0,281.719,228.344,510.031,510.063,510.031
			s510.031-228.313,510.031-510.031C1020.125,228.344,791.813,0,510.094,0L510.094,0z M599.625,796.938H360.563
			c-52.813,0-95.656-42.813-95.656-95.625V318.75c0-52.781,42.844-95.625,95.656-95.625h239.063c26.5,0,47.813,21.406,47.813,47.813
			c0,26.438-21.313,47.813-47.813,47.813H456.188h-47.813c-26.406,0-47.813,21.281-47.813,47.438c0,0.156,0,0.25,0,0.406l0,0v47.813
			v191.281V653.5c0,26.438,21.25,47.813,47.438,47.813c0.125,0,0.25,0,0.375,0l0,0h47.813h143.438
			c26.5,0,47.813,21.438,47.813,47.813C647.438,775.563,626.125,796.938,599.625,796.938L599.625,796.938z M833.5,524.969
			l-95.625,119.594c-4.625,5.75-11.625,8.938-18.688,8.938c-2.563,0-5.313-0.438-7.875-1.375
			c-9.625-3.313-16.063-12.438-16.063-22.5v-71.75H504c-26.375,0-47.813-21.406-47.813-47.844c0-26.406,21.438-47.813,47.813-47.813
			h191.25V390.5c0-10.188,6.438-19.219,16.063-22.563c2.563-0.906,5.313-1.344,7.875-1.344c7.063,0,14.063,3.156,18.688,8.969
			L833.5,495.125C840.563,503.844,840.563,516.25,833.5,524.969L833.5,524.969z"/>
	</g>
</g>
</svg>
