<?xml version="1.0" standalone="no"?><!DOCTYPE svg PUBLIC "-//W3C//DTD SVG 1.1//EN" "http://www.w3.org/Graphics/SVG/1.1/DTD/svg11.dtd"><svg width="16" height="16" viewBox="0 0 16 16" version="1.1" xmlns="http://www.w3.org/2000/svg" xmlns:xlink="http://www.w3.org/1999/xlink"><defs><style type="text/css"><![CDATA[
@font-face { font-family: ifont; src: url("http://at.alicdn.com/t/font_1442373896_4754455.eot?#iefix") format("embedded-opentype"), url("http://at.alicdn.com/t/font_1442373896_4754455.woff") format("woff"), url("http://at.alicdn.com/t/font_1442373896_4754455.ttf") format("truetype"), url("http://at.alicdn.com/t/font_1442373896_4754455.svg#ifont") format("svg"); }

]]></style></defs><g class="transform-group"><g transform="scale(0.015625, 0.015625)"><path d="M512 0C229.792 0 1.024 229.216 1.024 512c0 282.784 228.768 512 510.976 512 282.208 0 510.976-229.216 510.976-512C1022.976 229.216 794.208 0 512 0zM528.48 192.064c92.16 0 166.912 78.976 166.912 176.512 0 55.04-23.808 104.128-61.056 136.48-113.568 88.416-219.776-7.744-223.552-11.296-30.464-31.904-49.312-76.256-49.312-125.184C361.472 271.072 436.224 192.064 528.48 192.064zM766.112 751.584c-56.256 57.024-394.528 32.544-394.528 32.544C258.048 781.152 255.936 720 255.936 720c-11.936-58.656 95.424-145.632 135.584-175.904 133.472 87.072 229.984 29.408 264.032 2.08l90.752 80.992C827.488 712.768 766.016 751.552 766.112 751.584z" fill="#6bddb4"></path></g></g></svg>