<?xml version="1.0" encoding="utf-8"?>
<!-- Generator: Adobe Illustrator 16.0.0, SVG Export Plug-In . SVG Version: 6.00 Build 0)  -->
<!DOCTYPE svg PUBLIC "-//W3C//DTD SVG 1.1//EN" "http://www.w3.org/Graphics/SVG/1.1/DTD/svg11.dtd">
<svg version="1.1" id="图层_1" xmlns="http://www.w3.org/2000/svg" xmlns:xlink="http://www.w3.org/1999/xlink" x="0px" y="0px"
	 width="16px" height="16px" viewBox="0 0 16 16" enable-background="new 0 0 16 16" xml:space="preserve">
<g>
	<g transform="scale(0.015625, 0.015625)">
		<path fill="#FBA722" d="M456.156,83.219c0,2.813,0,5.25,0,7.656c0,149.906,0,299.813-0.156,449.719
			c0,5.156,1.594,8.594,4.969,12.156C564.5,660.625,667.875,768.563,771.313,876.313c1.188,1.375,2.75,2.25,4.125,3.313
			c-112.25,125.188-310.781,184.875-493.094,104.188C73.438,891.25-26.969,667.188,16.875,452.719
			C63.813,223.156,260.563,80.281,456.156,83.219z M531.219,472.688c0-155.969,0-311.5,0-467.031
			C742.625-3.969,980,185.594,979.875,472.688C830.5,472.688,681.188,472.688,531.219,472.688z M885.625,883.063
			c-106.375-110.188-212.563-220.188-319.5-331.188c151.063,0,301,0,450.938,0C1020.063,638.313,989.313,776.625,885.625,883.063z"
			/>
	</g>
</g>
</svg>
