<?xml version="1.0" encoding="utf-8"?>
<!-- Generator: Adobe Illustrator 16.0.0, SVG Export Plug-In . SVG Version: 6.00 Build 0)  -->
<!DOCTYPE svg PUBLIC "-//W3C//DTD SVG 1.1//EN" "http://www.w3.org/Graphics/SVG/1.1/DTD/svg11.dtd">
<svg version="1.1" id="图层_1" xmlns="http://www.w3.org/2000/svg" xmlns:xlink="http://www.w3.org/1999/xlink" x="0px" y="0px"
	 width="40px" height="40px" viewBox="0 0 40 40" enable-background="new 0 0 40 40" xml:space="preserve">
<g>
	<path fill="#14DDB9" d="M20,0C8.954,0,0,8.954,0,20s8.954,20,20,20s20-8.954,20-20S31.045,0,20,0z M30.718,21.379l-1.356,1.36
		l0.644,0.645c0.919,0.927,0.919,2.429-0.001,3.353L27.65,28.76c-0.433,0.436-1.017,0.655-1.605,0.655
		c-0.605,0-1.218-0.229-1.684-0.697l-6.029-6.065V22.65l-0.079-0.08v0.002c-0.306-0.309-0.805-0.312-1.111-0.002l-0.236,0.238
		l2.38,2.393c0.146,0.146,0.229,0.35,0.229,0.557c0,0.213-0.083,0.411-0.23,0.561l-0.553,0.556c0,0.001,0,0.004-0.002,0.004
		l-3.334,3.349c-0.46,0.463-1.064,0.691-1.668,0.691c-0.603,0-1.208-0.23-1.666-0.691l-2.778-2.793
		c-0.919-0.926-0.918-2.428,0-3.352l3.336-3.35l0.554-0.557c0.001,0,0.001,0,0.001,0c0.153-0.154,0.354-0.231,0.556-0.231
		s0.403,0.077,0.556,0.231l1.508,1.516l0.237-0.235c0.918-0.923,2.414-0.921,3.333,0.001l0.08,0.079l6.03,6.063
		c0.308,0.311,0.805,0.313,1.11,0l2.356-2.021c0.261-0.268,0.261-0.77-0.047-1.076l-0.643-0.646l-0.868,0.871
		c-0.444,0.447-1.034,0.691-1.666,0.691c-0.63,0-1.223-0.244-1.668-0.693l-9.201-9.256c-0.918-0.924-0.917-2.428,0.001-3.351
		l3.336-3.349c0.89-0.895,2.443-0.895,3.333,0.001l9.203,9.258c0.442,0.446,0.688,1.042,0.688,1.674
		C31.41,20.334,31.162,20.93,30.718,21.379z"/>
	<path fill="#14DDB9" d="M12.059,23.523l-1.668,1.674c-0.307,0.31-0.307,0.81,0,1.117l2.777,2.793c0.306,0.308,0.806,0.308,1.113,0
		l1.664-1.67c0-0.002,0-0.004,0.002-0.004l1.668-1.678l-3.888-3.906L12.059,23.523z"/>
	<path fill="#14DDB9" d="M20.406,9.885c-0.147-0.148-0.346-0.23-0.556-0.23s-0.407,0.083-0.555,0.231l-3.336,3.349
		c-0.306,0.308-0.306,0.809,0,1.117l9.202,9.255c0.295,0.301,0.813,0.301,1.11,0.002l3.334-3.35c0.147-0.15,0.229-0.348,0.229-0.56
		c0-0.212-0.082-0.409-0.229-0.557L20.406,9.885z M28.334,20.343c-0.152,0.152-0.352,0.226-0.551,0.226
		c-0.204,0-0.406-0.078-0.563-0.235L19.3,12.208c-0.303-0.311-0.298-0.811,0.012-1.117c0.31-0.305,0.809-0.301,1.112,0.012
		l7.922,8.123C28.648,19.538,28.645,20.038,28.334,20.343z"/>
</g>
</svg>
