<?xml version="1.0" encoding="utf-8"?>
<!-- Generator: Adobe Illustrator 16.0.0, SVG Export Plug-In . SVG Version: 6.00 Build 0)  -->
<!DOCTYPE svg PUBLIC "-//W3C//DTD SVG 1.1//EN" "http://www.w3.org/Graphics/SVG/1.1/DTD/svg11.dtd">
<svg version="1.1" id="图层_1" xmlns="http://www.w3.org/2000/svg" xmlns:xlink="http://www.w3.org/1999/xlink" x="0px" y="0px"
	 width="40px" height="40px" viewBox="0 0 40 40" enable-background="new 0 0 40 40" xml:space="preserve">
<circle fill="#FFD979" cx="20" cy="20" r="20"/>
<path fill="#FFFFFF" d="M29.911,16.072c-0.053-2.026-0.295-3.392-0.295-3.407c-0.01-0.105-0.063-0.202-0.148-0.265
	c-0.066-0.049-0.146-0.076-0.228-0.076c-0.021,0-0.045,0.002-0.066,0.006c-0.013,0.002-1.042,0.346-2.38,0.346
	c-0.769,0-1.654-0.282-2.133-0.428c-1.396-0.427-2.442-0.986-3.077-1.36c-0.685-0.406-1.047-0.714-1.049-0.717
	c-0.07-0.062-0.158-0.092-0.247-0.092c-0.088,0-0.176,0.03-0.246,0.092c-0.004,0.003-0.364,0.311-1.049,0.717
	c-0.633,0.375-1.678,0.934-3.074,1.36c-0.478,0.146-1.293,0.451-2.062,0.451c-1.34,0-2.435-0.367-2.447-0.369
	c-0.022-0.004-0.045-0.006-0.068-0.006c-0.082,0-0.161,0.026-0.228,0.076c-0.084,0.064-0.137,0.16-0.148,0.265
	c-0.001,0.015-0.188,1.38-0.241,3.407c-0.049,1.872-0.029,4.397,0.303,6.898c0.155,1.164,0.787,2.197,1.783,3.374
	c0.781,0.922,1.815,1.84,3.079,2.731c2.136,1.508,4.183,2.409,4.269,2.445c0.048,0.021,0.101,0.033,0.152,0.033
	c0.051,0,0.104-0.013,0.153-0.033c0.085-0.036,2.088-0.938,4.225-2.445c1.265-0.894,2.298-1.813,3.081-2.731
	c0.998-1.177,1.629-2.3,1.784-3.467C29.738,21.499,30,19.464,29.911,16.072z M28.093,22.683c-0.112,0.842-0.617,1.727-1.446,2.703
	c-0.699,0.826-1.644,1.66-2.807,2.48c-1.46,1.029-2.853,1.759-3.534,2.095c-0.702-0.339-2.112-1.065-3.568-2.095
	c-1.161-0.82-2.104-1.654-2.804-2.48c-0.873-1.029-1.337-1.813-1.444-2.611c-0.337-2.53-0.333-5.02-0.29-6.663
	c0.021-0.812,0.084-1.511,0.122-2.056c0.448,0.071,0.972,0.125,1.534,0.125c0.885,0,1.724-0.27,2.279-0.448
	c0.079-0.025,0.152-0.049,0.213-0.067c1.178-0.361,2.319-0.865,3.393-1.501c0.208-0.123,0.391-0.239,0.547-0.344
	c0.157,0.104,0.341,0.22,0.547,0.344c1.074,0.634,2.216,1.139,3.396,1.5l0.06,0.019c0.542,0.166,1.547,0.474,2.504,0.474
	c0.549,0,1.054-0.048,1.485-0.113c0.046,0.545,0.137,1.252,0.157,2.068C28.524,19.443,28.267,21.391,28.093,22.683z M24.204,23.926
	c0.603-1.005,0.963-2.15,0.963-3.44c0-3.576-1.823-5.615-4.811-5.615c-3.029,0-4.813,2.076-4.813,5.615
	c0,3.498,1.888,5.495,4.813,5.495c1.235,0,2.265-0.364,3.068-1.088l1.082,1.026c0.118,0.081,0.28,0.142,0.481,0.183
	c0.36-0.041,0.561-0.2,0.6-0.483c0-0.16-0.08-0.342-0.239-0.543L24.204,23.926z M23.184,22.959l-0.723-0.723
	c-0.159-0.16-0.339-0.242-0.541-0.242c-0.361,0.082-0.563,0.284-0.602,0.604c-0.041,0.201,0.063,0.383,0.301,0.546l0.901,0.845
	c-0.562,0.604-1.284,0.769-2.165,0.769c-2.166-0.082-3.462-1.411-3.462-4.27c0-2.765,1.295-4.288,3.462-4.409
	c2.125,0.121,3.461,1.613,3.461,4.409C23.817,21.433,23.502,22.236,23.184,22.959z"/>
</svg>
