<?xml version="1.0" encoding="utf-8"?>
<!-- Generator: Adobe Illustrator 16.0.0, SVG Export Plug-In . SVG Version: 6.00 Build 0)  -->
<!DOCTYPE svg PUBLIC "-//W3C//DTD SVG 1.1//EN" "http://www.w3.org/Graphics/SVG/1.1/DTD/svg11.dtd">
<svg version="1.1" id="图层_1" xmlns="http://www.w3.org/2000/svg" xmlns:xlink="http://www.w3.org/1999/xlink" x="0px" y="0px"
	 width="40px" height="40px" viewBox="0 0 40 40" enable-background="new 0 0 40 40" xml:space="preserve">
<g>
	<path fill="#14DDB9" d="M21.688,27.232c-0.104-0.166-0.188-0.355-0.273-0.559c-0.073-0.186-0.154-0.383-0.202-0.568h-0.635
		c-0.302,0-0.557-0.266-0.557-0.57v-0.014v-1.846c0-0.313,0.255-0.553,0.557-0.553h0.021h0.614c0.048-0.193,0.129-0.396,0.202-0.58
		l0.012-0.027c0.084-0.182,0.167-0.365,0.264-0.535l-0.451-0.445c-0.228-0.227-0.228-0.574,0-0.789l0.824-0.818l-0.352-0.357
		c-0.88,0.47-1.878,0.732-2.938,0.732c-1.05,0-2.054-0.263-2.937-0.732c-1.04,1.059-2.529,2.255-3.124,3.652
		c-0.236,0.609-0.367,1.264-0.367,1.98v1.965c0,0.088,0.012,0.158,0.042,0.225h2.402v-2.457c0-0.309,0.244-0.547,0.558-0.547
		c0.311,0,0.558,0.238,0.558,0.547v3.293v0.084v0.838h5.734v-0.273l-0.4-0.396c-0.229-0.225-0.229-0.574,0-0.793L21.688,27.232z"/>
	<path fill="#14DDB9" d="M18.981,19.216c2.656,0,4.857-2.149,4.857-4.845c0-2.701-2.177-4.871-4.857-4.871
		c-2.67,0-4.859,2.169-4.859,4.871C14.122,17.067,16.323,19.216,18.981,19.216z"/>
	<path fill="#14DDB9" d="M30.887,23.965c-0.254,0-0.466-0.168-0.523-0.439c-0.055-0.27-0.137-0.535-0.238-0.773
		c-0.104-0.256-0.241-0.494-0.391-0.729c-0.146-0.192-0.121-0.492,0.059-0.681l0.357-0.356l-0.506-0.505l-0.353,0.352
		c-0.185,0.171-0.462,0.222-0.674,0.076c-0.229-0.158-0.468-0.279-0.707-0.39l-0.033-0.006c-0.228-0.103-0.483-0.185-0.753-0.229
		c-0.256-0.046-0.468-0.266-0.468-0.537v-0.488H25.95v0.488c0,0.258-0.177,0.48-0.435,0.537c-0.272,0.045-0.541,0.113-0.793,0.229
		c-0.252,0.103-0.481,0.235-0.711,0.396c-0.213,0.134-0.5,0.108-0.685-0.076l-0.354-0.352l-0.507,0.505l0.358,0.356
		c0.164,0.179,0.205,0.47,0.058,0.681c-0.147,0.209-0.28,0.457-0.376,0.701l-0.013,0.026c-0.104,0.228-0.183,0.483-0.231,0.76
		c-0.029,0.248-0.259,0.462-0.537,0.462H21.23v0.711h0.494c0.256,0,0.479,0.176,0.529,0.43c0.053,0.271,0.137,0.539,0.239,0.798
		c0.098,0.235,0.228,0.489,0.383,0.713c0.142,0.209,0.127,0.502-0.052,0.683l-0.358,0.351l0.507,0.508l0.354-0.351
		c0.172-0.174,0.457-0.203,0.673-0.058c0.229,0.144,0.454,0.279,0.693,0.377l0.027,0.007c0.252,0.104,0.508,0.176,0.758,0.233
		c0.267,0.041,0.47,0.256,0.47,0.524v0.506h0.706v-0.506c0-0.242,0.185-0.474,0.443-0.524c0.264-0.047,0.531-0.127,0.776-0.233
		h0.011c0.252-0.104,0.49-0.229,0.719-0.384c0.205-0.146,0.49-0.131,0.687,0.058l0.353,0.351l0.508-0.508l-0.359-0.351
		c-0.169-0.164-0.204-0.461-0.066-0.683c0.151-0.218,0.284-0.455,0.387-0.687l0.014-0.026c0.1-0.246,0.188-0.502,0.229-0.761
		c0.039-0.272,0.252-0.467,0.537-0.467h0.486v-0.711h-0.486v-0.007L30.887,23.965L30.887,23.965z M28.094,26.293l-0.033,0.025
		c-0.428,0.416-1.004,0.668-1.648,0.668c-0.659,0-1.248-0.264-1.688-0.693c-0.434-0.434-0.697-1.031-0.697-1.684
		c0-0.66,0.266-1.252,0.697-1.68c0.439-0.436,1.028-0.707,1.688-0.707c0.654,0,1.249,0.271,1.686,0.707
		c0.428,0.428,0.699,1.02,0.699,1.68C28.795,25.262,28.521,25.859,28.094,26.293z"/>
	<path fill="#14DDB9" d="M26.41,23.344c-0.346,0-0.665,0.131-0.898,0.375c-0.216,0.221-0.367,0.533-0.367,0.891
		c0,0.35,0.151,0.664,0.367,0.896c0.233,0.23,0.553,0.369,0.898,0.369c0.343,0,0.646-0.125,0.865-0.348l0.035-0.021
		c0.23-0.229,0.377-0.547,0.377-0.896c0-0.355-0.146-0.67-0.377-0.891C27.086,23.475,26.766,23.344,26.41,23.344z"/>
	<path fill="#14DDB9" d="M20-0.003C8.952-0.003-0.004,8.953-0.004,20c0,11.048,8.956,20.003,20.003,20.003
		c11.048,0,20.003-8.955,20.003-20.003C40.003,8.953,31.048-0.003,20-0.003z M32.145,23.449v1.725c0,0.291-0.233,0.535-0.514,0.535
		h-0.015H31.02c-0.043,0.178-0.11,0.361-0.188,0.533l-0.008,0.023c-0.071,0.186-0.148,0.346-0.25,0.502l0.424,0.422
		c0.211,0.207,0.211,0.537,0,0.742L29.77,29.16c-0.205,0.199-0.525,0.199-0.731,0l-0.431-0.426c-0.168,0.098-0.34,0.176-0.528,0.262
		c-0.166,0.068-0.354,0.131-0.54,0.188v0.596c0,0.296-0.232,0.535-0.52,0.535h-0.021h-1.723c-0.295,0-0.526-0.239-0.526-0.535v-0.01
		v-0.586c-0.188-0.058-0.372-0.117-0.545-0.188H24.18c-0.178-0.086-0.344-0.164-0.498-0.262L23.4,29.01v0.43
		c0,0.475-0.385,0.875-0.868,0.875h-0.024h-7.1c-0.474,0-0.865-0.4-0.865-0.875v-0.025V28.66h-1.704
		c-0.073,0-0.123-0.01-0.179-0.021c-0.461-0.078-0.824-0.338-1.069-0.686c-0.255-0.365-0.39-0.814-0.39-1.246v-1.844
		c0-0.893,0.157-1.734,0.479-2.512c0.646-1.539,1.961-2.646,3.113-3.798l-0.038-0.045c-1.125-1.104-1.749-2.64-1.749-4.205
		c0-3.293,2.684-5.983,5.965-5.983c3.292,0,5.972,2.69,5.972,5.983c0,1.632-0.67,3.124-1.744,4.205h-0.012l-0.039,0.045
		c0.36,0.355,0.72,0.696,1.074,1.047c0.174-0.066,0.346-0.123,0.523-0.179V18.83c0-0.295,0.23-0.522,0.525-0.522h0.015h1.731
		c0.283,0,0.519,0.228,0.519,0.522v0.007v0.584c0.187,0.056,0.374,0.117,0.54,0.196l0.027,0.01c0.172,0.065,0.34,0.164,0.502,0.24
		l0.43-0.424c0.206-0.206,0.527-0.206,0.732,0l1.228,1.237c0.211,0.198,0.211,0.526,0,0.739l-0.425,0.42
		c0.103,0.17,0.189,0.336,0.259,0.527c0.077,0.172,0.146,0.362,0.188,0.545h0.61c0.278,0,0.515,0.223,0.515,0.521v0.018H32.145z"/>
</g>
</svg>
