<?xml version="1.0" encoding="utf-8"?>
<!-- Generator: Adobe Illustrator 16.0.0, SVG Export Plug-In . SVG Version: 6.00 Build 0)  -->
<!DOCTYPE svg PUBLIC "-//W3C//DTD SVG 1.1//EN" "http://www.w3.org/Graphics/SVG/1.1/DTD/svg11.dtd">
<svg version="1.1" id="图层_1" xmlns="http://www.w3.org/2000/svg" xmlns:xlink="http://www.w3.org/1999/xlink" x="0px" y="0px"
	 width="40px" height="40px" viewBox="0 0 40 40" enable-background="new 0 0 40 40" xml:space="preserve">
<circle fill="#FFD979" cx="20" cy="20" r="20"/>
<path fill="#FFFFFF" d="M20.466,28.872c-7.406,0-13.039-1.744-13.101-4.058c-0.034-1.215,1.116-1.842,2.42-2.068
	c0.418-5.121,3.091-10.485,7.67-11.427c0.411-0.176,1.802-0.74,2.984-0.771c0.002,0,0.002,0,0.004,0
	c1.249,0,2.456,0.566,2.866,0.782c6.278,1.384,7.584,8.489,7.855,11.482c1.037,0.238,2.225,0.742,2.076,2.039
	C33.242,25.677,31.074,28.872,20.466,28.872L20.466,28.872z M9.365,24.813c0.788,0.717,4.218,2.184,11.098,2.184
	c7.35,0,9.946-1.584,10.707-2.239c-0.204-0.071-0.531-0.159-1.038-0.241c-0.435-0.07-0.771-0.537-0.795-0.979
	c-0.114-1.994-0.846-8.262-5.411-10.066l0.024,5.601v0.002c0,0.516-0.419,0.938-0.935,0.938c-0.002,0-0.002,0-0.004,0
	c-0.517,0-0.938-0.418-0.938-0.935l-0.026-6.271c-0.426-0.183-1.02-0.384-1.518-0.384c-0.583,0.015-1.32,0.235-1.847,0.428
	l0.055,6.16c0,0.002,0,0.005,0,0.01c0,0.513-0.415,0.932-0.93,0.938c-0.003,0-0.006,0-0.008,0c-0.515,0-0.935-0.415-0.938-0.931
	l-0.051-5.542c-3.204,1.413-5.055,6.053-5.198,10.139c-0.017,0.487-0.404,0.879-0.889,0.901C10.237,24.552,9.663,24.68,9.365,24.813
	L9.365,24.813z"/>
</svg>
