<?xml version="1.0" encoding="utf-8"?>
<!-- Generator: Adobe Illustrator 16.0.0, SVG Export Plug-In . SVG Version: 6.00 Build 0)  -->
<!DOCTYPE svg PUBLIC "-//W3C//DTD SVG 1.1//EN" "http://www.w3.org/Graphics/SVG/1.1/DTD/svg11.dtd">
<svg version="1.1" id="图层_1" xmlns="http://www.w3.org/2000/svg" xmlns:xlink="http://www.w3.org/1999/xlink" x="0px" y="0px"
	 width="40px" height="40px" viewBox="0 0 40 40" enable-background="new 0 0 40 40" xml:space="preserve">
<circle fill="#14DDB9" cx="20" cy="20" r="20"/>
<path fill="#FFFFFF" d="M30.316,23.682h-1.103v-1.652c0-2.201-1.103-3.854-3.303-3.854h-4.955v-1.927h1.789
	c0.551,0,0.964-0.413,0.964-0.963V10.88c0-0.551-0.413-0.963-0.964-0.963h-5.643c-0.551,0-0.963,0.413-0.963,0.963v4.267
	c0,0.551,0.413,0.964,0.963,0.964h1.789v2.064h-4.679c-2.203,0-2.891,1.789-2.891,3.854v1.65H10.22
	c-0.551,0-0.964,0.411-0.964,0.963v3.58c0,0.551,0.413,0.963,0.964,0.963h3.58c0.551,0,0.964-0.412,0.964-0.963v-3.58
	c0-0.552-0.413-0.963-0.964-0.963h-1.1v-2.201c0,0-0.138-1.929,2.34-1.929h3.854v4.13h-1.101c-0.551,0-0.964,0.411-0.964,0.963
	v3.439c0,0.552,0.413,0.964,0.964,0.964h4.268c0.549,0,0.963-0.412,0.963-0.964v-3.439c0-0.552-0.414-0.963-0.963-0.963h-1.103
	v-4.13H25.5c1.789,0,1.927,0.688,2.34,1.929l0,0v2.201h-1.102c-0.551,0-0.963,0.411-0.963,0.963v3.439
	c0,0.552,0.412,0.964,0.963,0.964h3.578c0.552,0,0.963-0.412,0.963-0.964v-3.439C31.279,24.23,30.868,23.682,30.316,23.682
	L30.316,23.682L30.316,23.682z M17.517,14.734v-3.303h4.817v3.303H17.517z"/>
</svg>
