<?xml version="1.0" encoding="utf-8"?>
<!-- Generator: Adobe Illustrator 16.0.0, SVG Export Plug-In . SVG Version: 6.00 Build 0)  -->
<!DOCTYPE svg PUBLIC "-//W3C//DTD SVG 1.1//EN" "http://www.w3.org/Graphics/SVG/1.1/DTD/svg11.dtd">
<svg version="1.1" id="图层_1" xmlns="http://www.w3.org/2000/svg" xmlns:xlink="http://www.w3.org/1999/xlink" x="0px" y="0px"
	 width="40px" height="40px" viewBox="0 0 40 40" enable-background="new 0 0 40 40" xml:space="preserve">
<g>
	<path fill="#87CBFF" d="M20.474,21.182H9.917v6.687h10.557V21.182z M12.684,27.256h-0.882v-3.82h0.882V27.256z M13.737,27.256
		h-0.613v-2.864h0.613V27.256z M14.938,27.256h-0.882v-4.776h0.882V27.256z M15.99,27.256h-0.612v-4.162h0.612V27.256z
		 M16.946,27.256h-0.638v-2.864h0.638V27.256z M18.269,27.256h-0.882v-3.82h0.882V27.256z"/>
	<path fill="#87CBFF" d="M20,0C8.954,0,0,8.954,0,20s8.954,20,20,20s20-8.954,20-20S31.046,0,20,0z M21.877,10.158
		c2.31,0,4.183,1.874,4.183,4.185c0,2.309-1.873,4.182-4.183,4.182c-2.311,0-4.185-1.873-4.185-4.182
		C17.692,12.03,19.566,10.158,21.877,10.158z M15.44,29.843c-2.163,0-3.917-0.174-3.917-0.386c0-0.152,0.94-0.283,2.214-0.345V28.53
		H8.961v-7.96h12.467v7.96h-4.825v0.563c1.616,0.05,2.727,0.194,2.727,0.363C19.33,29.669,17.604,29.843,15.44,29.843z
		 M29.045,28.53h-0.067l-0.28,0.125c-0.14,0.071-2.423,1.179-6.359,1.179c-0.752,0-1.565-0.054-2.436-0.149
		c0.066-0.087,0.066-0.194,0.066-0.271c0-0.201,0-0.246-0.695-0.589h2.768v-8.597h-5.682c0.967-0.954,2.287-1.275,3.744-1.275h3.549
		h0.001c2.954,0,5.393,2.261,5.393,5.213V28.53z"/>
</g>
</svg>
