<?xml version="1.0" encoding="utf-8"?>
<!-- Generator: Adobe Illustrator 16.0.0, SVG Export Plug-In . SVG Version: 6.00 Build 0)  -->
<!DOCTYPE svg PUBLIC "-//W3C//DTD SVG 1.1//EN" "http://www.w3.org/Graphics/SVG/1.1/DTD/svg11.dtd">
<svg version="1.1" id="图层_1" xmlns="http://www.w3.org/2000/svg" xmlns:xlink="http://www.w3.org/1999/xlink" x="0px" y="0px"
	 width="80px" height="80px" viewBox="0 0 80 80" enable-background="new 0 0 80 80" xml:space="preserve">
<g>
	<g>
		<path fill-rule="evenodd" clip-rule="evenodd" fill="#45CB8C" d="M60.637,50.543c-0.477-0.362-1.061-0.563-1.622-0.724
			c-0.297-0.083-0.604-0.156-0.93-0.233c-1.593-0.378-3.573-0.848-5.007-2.866c-0.272-0.37-1.04-1.808,0.95-4.41
			c1.236-1.612,1.681-4.434,1.19-7.549c-0.316-2.041-2.131-3.578-4.22-3.578c-2.086,0-3.898,1.537-4.215,3.576
			c-0.49,3.118-0.046,5.939,1.188,7.549c1.992,2.605,1.223,4.043,0.95,4.413c-0.445,0.625-0.944,1.094-1.467,1.464
			c0.562,0.236,1.13,0.536,1.668,0.941c1.622,1.216,2.349,3.036,2.66,4.691h10.069C61.837,52.75,61.592,51.266,60.637,50.543z
			 M47.344,51.521c-0.66-0.497-1.469-0.77-2.246-0.991c-0.412-0.113-0.838-0.214-1.288-0.319c-2.204-0.518-4.947-1.162-6.933-3.929
			c-0.377-0.507-1.439-2.477,1.316-6.044c1.711-2.208,2.327-6.074,1.648-10.344c-0.439-2.797-2.95-4.904-5.843-4.904
			c-2.89,0-5.398,2.107-5.837,4.9c-0.679,4.273-0.063,8.141,1.646,10.347c2.759,3.569,1.693,5.54,1.315,6.046
			c-1.987,2.766-4.736,3.409-6.945,3.927c-0.43,0.101-0.835,0.196-1.23,0.303c-0.749,0.21-1.604,0.493-2.287,1.007
			c-1.395,1.044-1.667,3.133-1.685,4.49h30.052C49.005,54.546,48.665,52.512,47.344,51.521z M40,0C17.908,0,0,17.908,0,40
			s17.908,40,40,40s40-17.908,40-40S62.092,0,40,0z M63.934,55.065L63.8,56H51.996c0.012,0.961-0.077,1.64-0.089,1.719L51.723,59
			H16.277l-0.186-1.28c-0.034-0.24-0.806-5.905,2.789-8.596c1.074-0.81,2.259-1.21,3.275-1.494l0.012-0.003
			c0.445-0.121,0.898-0.227,1.336-0.329c2.052-0.48,3.829-0.897,5.16-2.698c0.016-0.173,0.007-0.96-1.203-2.526
			c-1.241-1.601-2.039-3.693-2.369-6.216c-0.332-2.538-0.111-4.9,0.133-6.435c0.33-2.11,1.438-4.027,3.119-5.395
			C29.952,22.721,31.961,22,33.999,22c2.042,0,4.053,0.721,5.661,2.028c1.681,1.366,2.788,3.283,3.12,5.397
			c0.243,1.531,0.464,3.893,0.131,6.432c-0.331,2.522-1.128,4.614-2.369,6.217c-1.21,1.566-1.22,2.354-1.202,2.526
			c1.28,1.737,2.977,2.186,4.933,2.647c1.122-0.3,2.103-0.702,2.873-1.757c0.013-0.126,0.006-0.7-0.868-1.844
			c-0.896-1.168-1.473-2.694-1.711-4.535c-0.24-1.853-0.081-3.576,0.096-4.696c0.238-1.539,1.039-2.938,2.253-3.936
			c1.161-0.955,2.612-1.48,4.084-1.48c1.476,0,2.928,0.525,4.089,1.48c1.214,0.997,2.014,2.396,2.253,3.938
			c0.176,1.117,0.336,2.841,0.095,4.693c-0.238,1.841-0.814,3.367-1.711,4.537c-0.874,1.143-0.881,1.717-0.868,1.843
			c0.959,1.314,2.238,1.618,3.718,1.969c0.332,0.079,0.676,0.161,1.015,0.255l0.008,0.003c0.725,0.208,1.568,0.499,2.326,1.076
			C64.515,50.757,63.958,54.891,63.934,55.065z"/>
	</g>
</g>
</svg>
