<?xml version="1.0" encoding="utf-8"?>
<!-- Generator: Adobe Illustrator 16.0.0, SVG Export Plug-In . SVG Version: 6.00 Build 0)  -->
<!DOCTYPE svg PUBLIC "-//W3C//DTD SVG 1.1//EN" "http://www.w3.org/Graphics/SVG/1.1/DTD/svg11.dtd">
<svg version="1.1" xmlns="http://www.w3.org/2000/svg" xmlns:xlink="http://www.w3.org/1999/xlink" x="0px" y="0px" width="80px"
	 height="80px" viewBox="0 0 80 80" enable-background="new 0 0 80 80" xml:space="preserve">
<g id="矩形_1_1_" enable-background="new    ">
	<g id="矩形_1">
		<g>
			<path fill-rule="evenodd" clip-rule="evenodd" fill="#FFA100" d="M74,0H6C2.686,0,0,2.687,0,6v68c0,3.313,2.686,6,6,6h68
				c3.313,0,6-2.687,6-6V6C80,2.687,77.313,0,74,0z"/>
		</g>
	</g>
</g>
<g id="形状_2_1_" opacity="0.902" enable-background="new    ">
	<g id="形状_2">
		<g>
			<path fill-rule="evenodd" clip-rule="evenodd" fill="#FEFEFE" d="M62.014,25.386C54.852,22.998,41.862,17.788,39,15
				c-2.863,2.788-15.851,7.998-23.014,10.386C15.352,54.066,30.852,65.006,38.98,68.98V69c0.006-0.003,0.013-0.006,0.019-0.01
				c0.007,0.004,0.014,0.007,0.02,0.01v-0.02C47.147,65.006,62.648,54.066,62.014,25.386z M39.017,64.794v0.018L39,64.803
				c-0.004,0.003-0.01,0.006-0.016,0.009v-0.018c-6.604-3.359-19.195-12.605-18.681-36.848c5.82-2.019,16.371-6.423,18.698-8.779
				c2.326,2.356,12.876,6.761,18.697,8.779C58.212,52.188,45.619,61.435,39.017,64.794z"/>
		</g>
	</g>
</g>
<g id="形状_2_拷贝_1_" enable-background="new    ">
	<g id="形状_2_拷贝">
		<g>
			<path fill-rule="evenodd" clip-rule="evenodd" fill="#FEFEFE" d="M53.598,31.025c-4.527-1.57-14.52-6.813-14.594-6.852v-0.006
				v0.006c0,0-0.003-0.002-0.003-0.002l-0.013,35.621v0.014c0.004-0.002,0.009-0.005,0.013-0.007l0.013,0.007v-0.006
				c0.001,0,0.002,0.001,0.004,0.002v-0.012C44.174,57.167,53.999,49.947,53.598,31.025z"/>
		</g>
	</g>
</g>
<g id="形状_2_拷贝_2_1_" opacity="0.4" enable-background="new    ">
	<g id="形状_2_拷贝_2">
		<g>
			<path fill-rule="evenodd" clip-rule="evenodd" fill="#FEFEFE" d="M39.018,59.79l-0.014-35.622c0,0-10.053,5.278-14.596,6.854
				c-0.402,18.922,9.423,26.142,14.58,28.767v0.005v0.014c0.004-0.002,0.009-0.005,0.013-0.007l0.013,0.007v-0.006
				c0.001,0,0.002,0.001,0.004,0.002V59.79z"/>
		</g>
	</g>
</g>
</svg>
