<?xml version="1.0" encoding="utf-8"?>
<!-- Generator: Adobe Illustrator 16.0.0, SVG Export Plug-In . SVG Version: 6.00 Build 0)  -->
<!DOCTYPE svg PUBLIC "-//W3C//DTD SVG 1.1//EN" "http://www.w3.org/Graphics/SVG/1.1/DTD/svg11.dtd">
<svg version="1.1" xmlns="http://www.w3.org/2000/svg" xmlns:xlink="http://www.w3.org/1999/xlink" x="0px" y="0px" width="80px"
	 height="80px" viewBox="0 0 80 80" enable-background="new 0 0 80 80" xml:space="preserve">
<g id="矩形_1_拷贝_11_1_" enable-background="new    ">
	<g id="矩形_1_拷贝_11">
		<g>
			<path fill-rule="evenodd" clip-rule="evenodd" fill="#F96B4F" d="M74,0H6C2.686,0,0,2.687,0,6v68c0,3.313,2.686,6,6,6h68
				c3.313,0,6-2.687,6-6V6C80,2.687,77.313,0,74,0z"/>
		</g>
	</g>
</g>
<g id="形状_1_1_" enable-background="new    ">
	<g id="形状_1">
		<g>
			<path fill-rule="evenodd" clip-rule="evenodd" fill="#FFFFFF" d="M25.212,20.992C19.02,20.992,14,23.479,14,26.549
				s5.019,5.557,11.211,5.557c6.193,0,11.212-2.487,11.212-5.557S31.405,20.992,25.212,20.992z M25.212,34.991
				c-5.358,0-9.836-1.863-10.945-4.354C14.094,31.025,14,31.427,14,31.84c0,3.069,5.019,5.558,11.211,5.558
				c6.193,0,11.212-2.488,11.212-5.558c0-0.413-0.094-0.814-0.266-1.202C35.048,33.128,30.571,34.991,25.212,34.991z M25.212,40.392
				c-5.358,0-9.836-1.863-10.945-4.354C14.094,36.426,14,36.828,14,37.241c0,3.069,5.019,5.557,11.211,5.557
				c6.193,0,11.212-2.487,11.212-5.557c0-0.413-0.094-0.815-0.266-1.203C35.048,38.528,30.571,40.392,25.212,40.392z M25.212,45.793
				c-5.358,0-9.836-1.864-10.945-4.354C14.094,41.826,14,42.229,14,42.642c0,3.069,5.019,5.557,11.211,5.557
				c6.193,0,11.212-2.487,11.212-5.557c0-0.413-0.094-0.815-0.266-1.203C35.048,43.929,30.571,45.793,25.212,45.793z M25.212,51.193
				c-5.358,0-9.836-1.863-10.945-4.354C14.094,47.227,14,47.629,14,48.042c0,3.069,5.019,5.558,11.211,5.558
				c6.193,0,11.212-2.488,11.212-5.558c0-0.413-0.094-0.815-0.266-1.202C35.048,49.33,30.571,51.193,25.212,51.193z M25.212,56.594
				c-5.358,0-9.836-1.863-10.945-4.354C14.094,52.628,14,53.029,14,53.443C14,56.513,19.02,59,25.212,59
				c6.193,0,11.212-2.487,11.212-5.557c0-0.414-0.094-0.815-0.266-1.203C35.048,54.73,30.571,56.594,25.212,56.594z M52.787,48.477
				c6.192,0,11.211-2.488,11.211-5.557c0-3.069-5.019-5.557-11.211-5.557s-11.211,2.487-11.211,5.557
				C41.576,45.988,46.595,48.477,52.787,48.477z M52.787,51.362c-5.358,0-9.836-1.863-10.945-4.354
				c-0.173,0.388-0.266,0.789-0.266,1.202c0,3.069,5.019,5.557,11.211,5.557s11.211-2.487,11.211-5.557
				c0-0.413-0.093-0.814-0.266-1.202C62.623,49.499,58.146,51.362,52.787,51.362z M52.787,56.763c-5.358,0-9.836-1.863-10.945-4.354
				c-0.173,0.388-0.266,0.79-0.266,1.203c0,3.068,5.019,5.557,11.211,5.557s11.211-2.488,11.211-5.557
				c0-0.413-0.093-0.815-0.266-1.203C62.623,54.899,58.146,56.763,52.787,56.763z"/>
		</g>
	</g>
</g>
<g id="形状_7_1_" opacity="0.8" enable-background="new    ">
	<g id="形状_7">
		<g>
			<path fill-rule="evenodd" clip-rule="evenodd" fill="#FFFFFF" d="M61,19h-3.982l-2.107,4.147
				c-0.821,1.683-1.125,2.35-1.805,3.594h-0.116c-0.634-1.243-0.938-1.845-1.804-3.594L49.053,19H45l5.506,8.548h-3.771v1.705h4.566
				v1.496h-4.566v1.705h4.566V36h3.42v-3.546h4.547v-1.705h-4.547v-1.497h4.547v-1.704h-3.796L61,19z"/>
		</g>
	</g>
</g>
</svg>
