<?xml version="1.0" encoding="utf-8"?>
<!-- Generator: Adobe Illustrator 16.0.0, SVG Export Plug-In . SVG Version: 6.00 Build 0)  -->
<!DOCTYPE svg PUBLIC "-//W3C//DTD SVG 1.1//EN" "http://www.w3.org/Graphics/SVG/1.1/DTD/svg11.dtd">
<svg version="1.1" xmlns="http://www.w3.org/2000/svg" xmlns:xlink="http://www.w3.org/1999/xlink" x="0px" y="0px" width="80px"
	 height="80px" viewBox="0 0 80 80" enable-background="new 0 0 80 80" xml:space="preserve">
<g id="矩形_1_拷贝_1_" enable-background="new    ">
	<g id="矩形_1_拷贝">
		<g>
			<path fill-rule="evenodd" clip-rule="evenodd" fill="#35B87F" d="M74,0H6C2.686,0,0,2.687,0,6v68c0,3.313,2.686,6,6,6h68
				c3.313,0,6-2.687,6-6V6C80,2.687,77.313,0,74,0z"/>
		</g>
	</g>
</g>
<g id="矩形_1_1_" opacity="0.702" enable-background="new    ">
	<g id="矩形_1">
		<g>
			<path fill-rule="evenodd" clip-rule="evenodd" fill="#FFFFFF" d="M55.844,22H42.531c-0.553,0-1,0.447-1,1v8.719
				c0,0.552,0.447,1,1,1h13.313c0.553,0,1-0.448,1-1V23C56.844,22.447,56.396,22,55.844,22z M37.469,22H24.156c-0.552,0-1,0.447-1,1
				v8.719c0,0.552,0.448,1,1,1h13.313c0.552,0,1-0.448,1-1V23C38.469,22.447,38.021,22,37.469,22z"/>
		</g>
	</g>
</g>
<g id="矩形_1_拷贝_2_1_" enable-background="new    ">
	<g id="矩形_1_拷贝_2">
		<g>
			<path fill-rule="evenodd" clip-rule="evenodd" fill="#FFFFFF" d="M46.625,35.031h-13.25c-0.552,0-1,0.447-1,1v7.938
				c0,0.552,0.448,1,1,1h13.25c0.553,0,1-0.448,1-1v-7.938C47.625,35.479,47.178,35.031,46.625,35.031z M65,35.031H51.688
				c-0.553,0-1,0.447-1,1v7.938c0,0.552,0.447,1,1,1H65c0.553,0,1-0.448,1-1v-7.938C66,35.479,65.553,35.031,65,35.031z
				 M28.313,35.031H15c-0.552,0-1,0.447-1,1v7.938c0,0.552,0.448,1,1,1h13.313c0.552,0,1-0.448,1-1v-7.938
				C29.313,35.479,28.865,35.031,28.313,35.031z"/>
		</g>
	</g>
</g>
<g id="矩形_1_拷贝_5_1_" opacity="0.902" enable-background="new    ">
	<g id="矩形_1_拷贝_5">
		<g>
			<path fill-rule="evenodd" clip-rule="evenodd" fill="#FFFFFF" d="M55.844,48.031H42.531c-0.553,0-1,0.447-1,1V57
				c0,0.552,0.447,1,1,1h13.313c0.553,0,1-0.448,1-1v-7.969C56.844,48.479,56.396,48.031,55.844,48.031z M37.469,48.031H24.156
				c-0.552,0-1,0.447-1,1V57c0,0.552,0.448,1,1,1h13.313c0.552,0,1-0.448,1-1v-7.969C38.469,48.479,38.021,48.031,37.469,48.031z"/>
		</g>
	</g>
</g>
</svg>
