<?xml version="1.0" encoding="utf-8"?>
<!-- Generator: Adobe Illustrator 16.0.0, SVG Export Plug-In . SVG Version: 6.00 Build 0)  -->
<!DOCTYPE svg PUBLIC "-//W3C//DTD SVG 1.1//EN" "http://www.w3.org/Graphics/SVG/1.1/DTD/svg11.dtd">
<svg version="1.1" xmlns="http://www.w3.org/2000/svg" xmlns:xlink="http://www.w3.org/1999/xlink" x="0px" y="0px" width="80px"
	 height="80px" viewBox="0 0 80 80" enable-background="new 0 0 80 80" xml:space="preserve">
<g id="矩形_1_拷贝_5_1_" enable-background="new    ">
	<g id="矩形_1_拷贝_5">
		<g>
			<path fill-rule="evenodd" clip-rule="evenodd" fill="#F96B4F" d="M74,0H6C2.686,0,0,2.687,0,6v68c0,3.313,2.686,6,6,6h68
				c3.313,0,6-2.687,6-6V6C80,2.687,77.313,0,74,0z"/>
		</g>
	</g>
</g>
<g id="形状_10_拷贝_5_1_" opacity="0.8" enable-background="new    ">
	<g id="形状_10_拷贝_5">
		<g>
			<path fill-rule="evenodd" clip-rule="evenodd" fill="#FFFFFF" d="M50.266,32.729c-8.539,0-15.731,6.923-15.731,15.633
				s6.966,15.633,15.731,15.633c8.764,0,15.729-6.923,15.729-15.633C66.22,39.651,59.029,32.729,50.266,32.729z M59.063,47.658
				l-3.13,2.87l0.671,4.194c0,0.662-0.224,1.104-0.671,1.545c-0.224,0-0.447,0.221-0.894,0.221c-0.225,0-0.448,0-0.672-0.221
				l-3.801-1.986l-3.802,1.986c-0.671,0.221-1.341,0.221-1.788-0.221s-0.672-0.883-0.672-1.545l0.447-4.415l-3.131-2.87
				c-0.446-0.441-0.67-0.883-0.446-1.546c0.224-0.661,0.671-1.104,1.341-1.104l4.249-0.662l2.013-3.753
				c0.671-1.104,2.459-1.104,2.906,0l2.014,3.753l4.248,0.662c0.67,0.222,1.118,0.442,1.342,1.104
				C59.287,46.334,59.287,46.996,59.063,47.658z"/>
		</g>
	</g>
</g>
<g id="形状_10_拷贝_3_1_" enable-background="new    ">
	<g id="形状_10_拷贝_3">
		<g>
			<path fill-rule="evenodd" clip-rule="evenodd" fill="#FFFFFF" d="M29.562,44.256V40.98H21.29l0.208,2.263l-0.208,1.013H29.562z
				 M21.29,34.395h18.199v-3.276H21.29V34.395z M21.497,23.816l-0.207,2.35h23.189v-3.275H21.291L21.497,23.816z M54.264,13H14.789
				C13.895,13,13,13.883,13,14.767v47.439C13,63.104,13.888,64,14.776,64h19.758c-0.888-1.121-0.992-2.412-1.663-3.295h-0.334
				H16.313V16.29h36.432l0.059,12.604c0.895,0,2.346,0.221,3.232,0.221V14.767C56.035,13.883,55.148,13,54.264,13z"/>
		</g>
	</g>
</g>
</svg>
