<?xml version="1.0" encoding="utf-8"?>
<!-- Generator: Adobe Illustrator 16.0.0, SVG Export Plug-In . SVG Version: 6.00 Build 0)  -->
<!DOCTYPE svg PUBLIC "-//W3C//DTD SVG 1.1//EN" "http://www.w3.org/Graphics/SVG/1.1/DTD/svg11.dtd">
<svg version="1.1" xmlns="http://www.w3.org/2000/svg" xmlns:xlink="http://www.w3.org/1999/xlink" x="0px" y="0px" width="80px"
	 height="80px" viewBox="0 0 80 80" enable-background="new 0 0 80 80" xml:space="preserve">
<g id="矩形_1_拷贝_10_1_" enable-background="new    ">
	<g id="矩形_1_拷贝_10">
		<g>
			<path fill-rule="evenodd" clip-rule="evenodd" fill="#FFA100" d="M74,0H6C2.686,0,0,2.687,0,6v68c0,3.313,2.686,6,6,6h68
				c3.313,0,6-2.687,6-6V6C80,2.687,77.313,0,74,0z"/>
		</g>
	</g>
</g>
<g id="矩形_6_拷贝_2_1_" opacity="0.502" enable-background="new    ">
	<g id="矩形_6_拷贝_2">
		<g>
			<rect x="17.5" y="25.25" fill-rule="evenodd" clip-rule="evenodd" fill="#FFFFFF" width="35.938" height="3.625"/>
		</g>
	</g>
</g>
<g id="矩形_6_拷贝_3_1_" enable-background="new    ">
	<g id="矩形_6_拷贝_3">
		<g>
			<path fill-rule="evenodd" clip-rule="evenodd" fill="#FFFFFF" d="M32.656,34.031h-4.5v4.531h4.5V34.031z M36.25,38.563h4.5
				v-4.531h-4.5V38.563z M32.656,42.156h-4.5v4.531h4.5V42.156z M28.156,54.844h4.5v-4.531h-4.5V54.844z M24.563,42.156h-4.469
				v4.531h4.469V42.156z M20.094,54.844h4.469v-4.531h-4.469V54.844z M56.355,19.812H14.607c-0.803,0-1.607,0.8-1.607,1.6v38.964
				C13,61.188,13.798,62,14.596,62H37.04c-0.798-1.016-0.891-2.185-1.493-2.984H15.976V22.791H54.99l0.053,9.415
				c0.803,0,2.107,0.2,2.903,0.2V21.411C57.946,20.611,57.15,19.812,56.355,19.812z"/>
		</g>
	</g>
</g>
<g id="矩形_8_拷贝_1_" enable-background="new    ">
	<g id="矩形_8_拷贝">
		<g>
			<path fill-rule="evenodd" clip-rule="evenodd" fill="#FFFFFF" d="M21,20h4v-2h-4V20z M46,18v2h4v-2H46z"/>
		</g>
	</g>
</g>
<g id="形状_10_拷贝_8_1_" opacity="0.8" enable-background="new    ">
	<g id="形状_10_拷贝_8">
		<g>
			<path fill-rule="evenodd" clip-rule="evenodd" fill="#FFFFFF" d="M51.865,35.679c-7.671,0-14.13,6.271-14.13,14.158
				s6.257,14.158,14.13,14.158s14.131-6.271,14.131-14.158C66.197,41.948,59.738,35.679,51.865,35.679z M51.865,61.91
				c-6.714,0-12.05-5.347-12.05-12.074c0-6.727,5.509-12.073,12.05-12.073l-0.006,0.003c6.455,0,12.229,5.344,12.057,12.07
				C63.916,56.563,58.579,61.91,51.865,61.91z"/>
		</g>
	</g>
</g>
<g id="矩形_7_1_" enable-background="new    ">
	<g id="矩形_7">
		<g>
			<path fill-rule="evenodd" clip-rule="evenodd" fill="#FFFFFF" d="M51.865,39.388c-0.08,0-0.158,0.01-0.238,0.012v11.016h10.639
				c0.01-0.192,0.027-0.384,0.027-0.579C62.442,44.015,57.676,39.388,51.865,39.388z"/>
		</g>
	</g>
</g>
</svg>
