<?xml version="1.0" encoding="utf-8"?>
<!-- Generator: Adobe Illustrator 16.0.0, SVG Export Plug-In . SVG Version: 6.00 Build 0)  -->
<!DOCTYPE svg PUBLIC "-//W3C//DTD SVG 1.1//EN" "http://www.w3.org/Graphics/SVG/1.1/DTD/svg11.dtd">
<svg version="1.1" xmlns="http://www.w3.org/2000/svg" xmlns:xlink="http://www.w3.org/1999/xlink" x="0px" y="0px" width="80px"
	 height="80px" viewBox="0 0 80 80" enable-background="new 0 0 80 80" xml:space="preserve">
<g id="矩形_1_拷贝_9_1_" enable-background="new    ">
	<g id="矩形_1_拷贝_9">
		<g>
			<path fill-rule="evenodd" clip-rule="evenodd" fill="#35B87F" d="M74,0H6C2.686,0,0,2.687,0,6v68c0,3.313,2.686,6,6,6h68
				c3.313,0,6-2.687,6-6V6C80,2.687,77.313,0,74,0z"/>
		</g>
	</g>
</g>
<g id="矩形_8_拷贝_1_" opacity="0.8" enable-background="new    ">
	<g id="矩形_8_拷贝">
		<g>
			<path fill-rule="evenodd" clip-rule="evenodd" fill="#FFFFFF" d="M57.164,16H21.836C20.918,16,20,16.918,20,17.837v48.298
				C20,67.067,20.912,68,21.823,68h35.354C58.088,68,59,67.067,59,66.135V17.837C59,16.918,58.082,16,57.164,16z M55.6,64.573H23.4
				V19.422h32.2V64.573z"/>
		</g>
	</g>
</g>
<g id="矩形_8_拷贝_5_1_" enable-background="new    ">
	<g id="矩形_8_拷贝_5">
		<g>
			<path fill-rule="evenodd" clip-rule="evenodd" fill="#FFFFFF" d="M41.594,51.313h-4.188c-0.552,0-1,0.447-1,1v4.25
				c0,0.552,0.448,1,1,1h4.188c0.553,0,1-0.448,1-1v-4.25C42.594,51.76,42.146,51.313,41.594,51.313z M41.594,40.906h-4.188
				c-0.552,0-1,0.447-1,1v4.25c0,0.552,0.448,1,1,1h4.188c0.553,0,1-0.448,1-1v-4.25C42.594,41.354,42.146,40.906,41.594,40.906z
				 M32.344,51.313h-4.156c-0.552,0-1,0.447-1,1v4.25c0,0.552,0.448,1,1,1h4.156c0.552,0,1-0.448,1-1v-4.25
				C33.344,51.76,32.896,51.313,32.344,51.313z M32.344,40.906h-4.156c-0.552,0-1,0.447-1,1v4.25c0,0.552,0.448,1,1,1h4.156
				c0.552,0,1-0.448,1-1v-4.25C33.344,41.354,32.896,40.906,32.344,40.906z M50.813,40.906h-4.156c-0.553,0-1,0.447-1,1v4.25
				c0,0.552,0.447,1,1,1h4.156c0.553,0,1-0.448,1-1v-4.25C51.813,41.354,51.365,40.906,50.813,40.906z M50.842,22.24H28.158
				c-1.104,0-2,0.896-2,2V34.72c0,1.104,0.896,2,2,2h22.684c1.105,0,2-0.896,2-2V24.24C52.842,23.136,51.947,22.24,50.842,22.24z
				 M39,33h-3.857v2h-3.286v-2H28v-2h3.857v-1h-2.571v-2h2.571l-2.571-4H32l1.5,2.5l1.214-2.5h3l-2.571,4h2.571v2h-2.571v1H39V33z
				 M50.813,51.313h-4.156c-0.553,0-1,0.447-1,1v4.25c0,0.552,0.447,1,1,1h4.156c0.553,0,1-0.448,1-1v-4.25
				C51.813,51.76,51.365,51.313,50.813,51.313z"/>
		</g>
	</g>
</g>
</svg>
