<?xml version="1.0" encoding="utf-8"?>
<!-- Generator: Adobe Illustrator 16.0.0, SVG Export Plug-In . SVG Version: 6.00 Build 0)  -->
<!DOCTYPE svg PUBLIC "-//W3C//DTD SVG 1.1//EN" "http://www.w3.org/Graphics/SVG/1.1/DTD/svg11.dtd">
<svg version="1.1" xmlns="http://www.w3.org/2000/svg" xmlns:xlink="http://www.w3.org/1999/xlink" x="0px" y="0px" width="80px"
	 height="80px" viewBox="0 0 80 80" enable-background="new 0 0 80 80" xml:space="preserve">
<g id="矩形_1_拷贝_7_1_" enable-background="new    ">
	<g id="矩形_1_拷贝_7">
		<g>
			<path fill-rule="evenodd" clip-rule="evenodd" fill="#857DD0" d="M74,0H6C2.687,0,0,2.687,0,6v68c0,3.313,2.687,6,6,6h68
				c3.313,0,6-2.687,6-6V6C80,2.687,77.313,0,74,0z"/>
		</g>
	</g>
</g>
<g id="形状_5_1_" enable-background="new    ">
	<g id="形状_5">
		<g>
			<path fill-rule="evenodd" clip-rule="evenodd" fill="#FFFFFF" d="M60.287,45.24l-3.376-14.708C56.704,29.632,55.883,29,54.945,29
				c-0.041,0-0.084,0-0.125,0.003l-12.109,0.719c-0.457,0.027-0.893,0.206-1.232,0.506l-0.495,0.437l-0.53-0.468
				c-0.372-0.327-0.854-0.509-1.355-0.509h-5.024h-10.18c-0.946,0-1.762,0.638-1.969,1.533l-3.57,15.554
				c-0.143,0.623,0.035,1.275,0.478,1.747c0.383,0.41,0.927,0.641,1.489,0.641c0.084,0,0.169-0.006,0.254-0.017l4.785-0.589
				l12.788,9.704l1.326,1.202c0.386,0.351,0.881,0.526,1.374,0.526c0.131,0,0.26-0.013,0.388-0.037
				c0.442-0.033,0.874-0.207,1.218-0.52l9.173-8.317l4.534-4.024l1.586,0.455c0.188,0.055,0.379,0.081,0.57,0.081
				c0.505,0,0.998-0.184,1.377-0.527C60.218,46.625,60.441,45.918,60.287,45.24z M52.364,47.769
				c-0.03-0.038-0.062-0.075-0.099-0.108l-8.639-7.752c-0.41-0.366-1.048-0.341-1.426,0.057c-0.377,0.397-0.352,1.018,0.058,1.384
				l8.638,7.75l-0.635,0.575l-1.42,1.288c-0.004-0.005-0.008-0.012-0.012-0.018c-0.046-0.068-0.099-0.134-0.165-0.19l-7.175-6.211
				c-0.415-0.36-1.052-0.324-1.422,0.08c-0.371,0.404-0.334,1.023,0.082,1.384l7.174,6.211c0.012,0.011,0.027,0.018,0.039,0.028
				c0.012,0.009,0.023,0.017,0.035,0.024l-2.086,1.892c-0.01-0.021-0.025-0.04-0.037-0.061c-0.053-0.088-0.115-0.171-0.197-0.242
				l-5.876-5.087c-0.417-0.36-1.053-0.324-1.423,0.08s-0.333,1.023,0.083,1.384l5.875,5.087c0.029,0.024,0.061,0.044,0.091,0.063
				c0.026,0.019,0.05,0.037,0.077,0.053l-0.955,0.866c-0.012-0.034-0.029-0.067-0.043-0.101c-0.063-0.138-0.156-0.265-0.285-0.365
				l-1.428-1.115c-0.434-0.339-1.069-0.271-1.418,0.15l-1.03,1.246l-0.053,0.065l-0.854-0.647l0.113-0.138l1.007-1.219
				c0.349-0.422,0.28-1.039-0.155-1.379l-1.426-1.114c-0.435-0.339-1.069-0.271-1.417,0.15l-0.83,1.004l-0.326,0.394l-0.855-0.65
				l0.385-0.465l1.039-1.257c0.349-0.422,0.28-1.039-0.155-1.378l-1.428-1.115c-0.433-0.339-1.067-0.271-1.416,0.15l-0.861,1.041
				l-0.597,0.723l-0.519-0.395l-0.322-0.244c0.01-0.006,0.021-0.014,0.03-0.021c0.078-0.052,0.152-0.112,0.215-0.188l0.452-0.547
				l1.063-1.287c0.347-0.422,0.278-1.039-0.155-1.378l-1.427-1.115c-0.435-0.339-1.069-0.271-1.417,0.15l-0.884,1.071l-0.631,0.762
				c0,0.002-0.001,0.003-0.001,0.005c-0.082,0.099-0.139,0.209-0.175,0.322l-1.204-0.914l-0.563,0.07l-5.056,0.622l3.571-15.554
				h10.18h5.024l0.385,0.34l0.164,0.145l-3.155,3.818l-1.294,1.567c0,0-0.608,0.645-0.551,1.384
				c0.021,0.262,0.125,0.535,0.369,0.796c1.157,1.233,3.799,0.282,3.799,0.282l3.289-3.815c0,0,0.428-0.544,1.184-0.82L54.832,45.53
				L52.364,47.769z"/>
		</g>
	</g>
</g>
<g id="形状_5_拷贝_1_" opacity="0.502" enable-background="new    ">
	<g id="形状_5_拷贝">
		<g>
			<path fill-rule="evenodd" clip-rule="evenodd" fill="#FFFFFF" d="M19.119,29.979h-7.112c-0.557,0-1.007,0.438-1.007,0.98v20.007
				c0,0.54,0.451,0.979,1.007,0.979h2.577c0.474,0,0.883-0.32,0.984-0.77l4.535-20.007c0.066-0.289-0.007-0.593-0.198-0.824
				C19.713,30.114,19.425,29.979,19.119,29.979z M66.993,29.161h-7.112c-0.306,0-0.596,0.134-0.786,0.366
				c-0.19,0.231-0.265,0.534-0.198,0.824l4.535,20.007c0.102,0.449,0.512,0.77,0.984,0.77h2.577c0.557,0,1.007-0.439,1.007-0.98
				V30.142C68,29.601,67.55,29.161,66.993,29.161z"/>
		</g>
	</g>
</g>
</svg>
