<?xml version="1.0" encoding="utf-8"?>
<!-- Generator: Adobe Illustrator 16.0.0, SVG Export Plug-In . SVG Version: 6.00 Build 0)  -->
<!DOCTYPE svg PUBLIC "-//W3C//DTD SVG 1.1//EN" "http://www.w3.org/Graphics/SVG/1.1/DTD/svg11.dtd">
<svg version="1.1" id="形状_8_1_" xmlns="http://www.w3.org/2000/svg" xmlns:xlink="http://www.w3.org/1999/xlink" x="0px"
	 y="0px" width="38px" height="38px" viewBox="0 0 38 38" enable-background="new 0 0 38 38" xml:space="preserve">
<g id="形状_8">
	<g>
		<path fill-rule="evenodd" clip-rule="evenodd" fill="#FFFFFF" d="M19.001,36.275c-1.064,0-1.964-0.639-2.291-1.598l-1.929-0.041
			C15.211,36.57,16.934,38,19.001,38s3.789-1.43,4.22-3.363l-1.93,0.041C20.965,35.637,20.064,36.275,19.001,36.275z M32.693,30.348
			l-1.636-2.438V16.137c0-5.635-4.048-10.344-9.474-11.521V3.522c0-1.43-1.119-2.522-2.583-2.522c-1.464,0-2.583,1.093-2.583,2.522
			v1.093c-5.426,1.178-9.474,5.887-9.474,11.521v11.772l-1.636,2.438c-0.775,1.093,0,2.606,1.378,2.606H31.23
			C32.693,32.954,33.469,31.44,32.693,30.348z M18.14,3.522c0-0.504,0.344-0.841,0.861-0.841c0.517,0,0.86,0.337,0.86,0.841v0.841
			H18.14V3.522z M7.297,30.642l1.555-2.316l0.245-0.399v-0.479V16.263c0-5.273,4.418-9.587,9.818-9.587
			c5.399,0,9.817,4.313,9.817,9.587v11.184v0.479l0.246,0.399l1.555,2.316H7.297z"/>
	</g>
</g>
</svg>
