<?xml version="1.0" encoding="utf-8"?>
<!-- Generator: Adobe Illustrator 16.0.0, SVG Export Plug-In . SVG Version: 6.00 Build 0)  -->
<!DOCTYPE svg PUBLIC "-//W3C//DTD SVG 1.1//EN" "http://www.w3.org/Graphics/SVG/1.1/DTD/svg11.dtd">
<svg version="1.1" id="形状_9_1_" xmlns="http://www.w3.org/2000/svg" xmlns:xlink="http://www.w3.org/1999/xlink" x="0px"
	 y="0px" width="50px" height="50px" viewBox="0 0 50 50" enable-background="new 0 0 50 50" xml:space="preserve">
<g id="形状_9">
	<g>
		<path fill-rule="evenodd" clip-rule="evenodd" fill="#FFFFFF" d="M25,0C11.193,0,0,11.193,0,25s11.193,25,25,25
			c13.807,0,25-11.193,25-25S38.807,0,25,0z M24.871,30.357c-7.944,0-15.083,3.84-17.752,9.429C3.79,35.768,1.786,30.613,1.786,25
			C1.786,12.2,12.2,1.786,25,1.786S48.215,12.2,48.215,25c0,5.705-2.073,10.933-5.5,14.979
			C40.117,34.271,32.956,30.357,24.871,30.357z M24.926,8.929c-5.424,0-9.821,4.397-9.821,9.821s4.397,9.821,9.821,9.821
			c5.424,0,9.822-4.397,9.822-9.821S30.35,8.929,24.926,8.929z"/>
	</g>
</g>
</svg>
