<?xml version="1.0" encoding="utf-8"?>
<!-- Generator: Adobe Illustrator 16.0.0, SVG Export Plug-In . SVG Version: 6.00 Build 0)  -->
<!DOCTYPE svg PUBLIC "-//W3C//DTD SVG 1.1//EN" "http://www.w3.org/Graphics/SVG/1.1/DTD/svg11.dtd">
<svg version="1.1" xmlns="http://www.w3.org/2000/svg" xmlns:xlink="http://www.w3.org/1999/xlink" x="0px" y="0px" width="80px"
	 height="80px" viewBox="0 0 80 80" enable-background="new 0 0 80 80" xml:space="preserve">
<g id="矩形_1_拷贝_12_1_" enable-background="new    ">
	<g id="矩形_1_拷贝_12">
		<g>
			<path fill-rule="evenodd" clip-rule="evenodd" fill="#857DD0" d="M74,0H6C2.686,0,0,2.687,0,6v68c0,3.313,2.686,6,6,6h68
				c3.313,0,6-2.687,6-6V6C80,2.687,77.313,0,74,0z"/>
		</g>
	</g>
</g>
<g id="形状_8_拷贝_1_" enable-background="new    ">
	<g id="形状_8_拷贝">
		<g>
			<path fill-rule="evenodd" clip-rule="evenodd" fill="#FFFFFF" d="M48.377,31.415c0-0.7-0.053-1.388-0.149-2.06L51.25,25.4
				c-0.726-2.073-1.812-3.981-3.189-5.646l-4.992,0.463c-1.174-0.969-2.506-1.759-3.949-2.332l-1.954-4.56
				c-1.147-0.22-2.331-0.337-3.543-0.337c-1.021,0-2.022,0.084-3,0.24l-2.088,4.497c-1.462,0.53-2.813,1.286-4.017,2.221
				l-4.974-0.608c-1.429,1.625-2.575,3.499-3.361,5.549l2.903,4.042c-0.141,0.808-0.218,1.638-0.218,2.485
				c0,0.699,0.053,1.386,0.15,2.059l-3.021,3.954c0.725,2.074,1.811,3.982,3.188,5.646l4.991-0.462
				c1.175,0.969,2.507,1.759,3.95,2.332l1.954,4.561c1.147,0.218,2.331,0.337,3.542,0.337c1.022,0,2.023-0.085,3-0.241l2.088-4.497
				c1.462-0.531,2.813-1.286,4.016-2.221l4.975,0.607c1.43-1.625,2.575-3.498,3.361-5.548l-2.903-4.043
				C48.3,33.091,48.377,32.262,48.377,31.415z M33.623,40.48c-5.067,0-9.175-4.06-9.175-9.065c0-5.008,4.108-9.066,9.175-9.066
				c5.067,0,9.176,4.059,9.176,9.066C42.799,36.421,38.69,40.48,33.623,40.48z"/>
		</g>
	</g>
</g>
<g id="形状_8_拷贝_2_1_" opacity="0.8" enable-background="new    ">
	<g id="形状_8_拷贝_2">
		<g>
			<path fill-rule="evenodd" clip-rule="evenodd" fill="#FFFFFF" d="M62.285,55.989c0-0.418-0.031-0.829-0.09-1.23l1.806-2.363
				c-0.433-1.239-1.082-2.378-1.905-3.373l-2.982,0.276c-0.701-0.579-1.497-1.05-2.359-1.393l-1.168-2.725
				C54.9,45.05,54.193,44.98,53.47,44.98c-0.61,0-1.208,0.05-1.792,0.144l-1.248,2.688c-0.873,0.315-1.682,0.768-2.399,1.326
				l-2.972-0.363c-0.854,0.971-1.539,2.09-2.009,3.314l1.734,2.416c-0.084,0.482-0.13,0.978-0.13,1.484
				c0,0.418,0.031,0.827,0.09,1.229l-1.806,2.363c0.433,1.239,1.081,2.379,1.905,3.373l2.981-0.276
				c0.702,0.579,1.498,1.051,2.36,1.395l1.167,2.724c0.687,0.131,1.394,0.201,2.117,0.201c0.61,0,1.208-0.051,1.792-0.145
				l1.248-2.687c0.873-0.316,1.681-0.768,2.399-1.326l2.972,0.363c0.854-0.972,1.539-2.09,2.008-3.314l-1.734-2.416
				C62.238,56.991,62.285,56.495,62.285,55.989z M53.47,61.405c-3.028,0-5.481-2.425-5.481-5.416c0-2.992,2.453-5.417,5.481-5.417
				c3.027,0,5.481,2.425,5.481,5.417C58.951,58.98,56.497,61.405,53.47,61.405z"/>
		</g>
	</g>
</g>
</svg>
