<?xml version="1.0" encoding="utf-8"?>
<!-- Generator: Adobe Illustrator 16.0.0, SVG Export Plug-In . SVG Version: 6.00 Build 0)  -->
<!DOCTYPE svg PUBLIC "-//W3C//DTD SVG 1.1//EN" "http://www.w3.org/Graphics/SVG/1.1/DTD/svg11.dtd">
<svg version="1.1" xmlns="http://www.w3.org/2000/svg" xmlns:xlink="http://www.w3.org/1999/xlink" x="0px" y="0px" width="80px"
	 height="80px" viewBox="0 0 80 80" enable-background="new 0 0 80 80" xml:space="preserve">
<g id="矩形_1_拷贝_8_1_" enable-background="new    ">
	<g id="矩形_1_拷贝_8">
		<g>
			<path fill-rule="evenodd" clip-rule="evenodd" fill="#1EA8FF" d="M74,0H6C2.686,0,0,2.687,0,6v68c0,3.313,2.686,6,6,6h68
				c3.313,0,6-2.687,6-6V6C80,2.687,77.313,0,74,0z"/>
		</g>
	</g>
</g>
<g id="矩形_5_1_" opacity="0.8" enable-background="new    ">
	<g id="矩形_5">
		<g>
			<path fill-rule="evenodd" clip-rule="evenodd" fill="#FFFFFF" d="M36.25,17l-1.157,9.388h9.814L43.75,17H36.25z M19.441,18.134
				l-4.071,8.254h9.908L28.75,17h-7.501C20.561,17,19.75,17.508,19.441,18.134z M60.559,18.134C60.25,17.508,59.439,17,58.751,17
				H51.25l3.473,9.388h9.906L60.559,18.134z"/>
		</g>
	</g>
</g>
<g id="矩形_3_拷贝_1_" opacity="0.149" enable-background="new    ">
	<g id="矩形_3_拷贝">
		<g>
			<path fill-rule="evenodd" clip-rule="evenodd" fill="#FFFFFF" d="M38.063,42.875V57.25h21.156V42.875H38.063z M41.348,48.628
				c-0.271-0.273-0.271-0.717,0-0.99l2.196-2.253c0.271-0.272,0.71-0.272,0.98,0c0.271,0.273,0.271,0.717,0,0.99l-2.231,2.253
				c-0.135,0.137-0.304,0.205-0.473,0.205S41.482,48.765,41.348,48.628z M48.479,47.502l-5.07,5.018
				c-0.135,0.137-0.303,0.205-0.473,0.205c-0.169,0-0.338-0.068-0.473-0.205c-0.271-0.272-0.271-0.717-0.034-0.99l5.069-5.018
				c0.271-0.273,0.71-0.273,0.98,0C48.748,46.784,48.748,47.229,48.479,47.502z"/>
		</g>
	</g>
</g>
<g id="矩形_3_1_" enable-background="new    ">
	<g id="矩形_3">
		<g>
			<path fill-rule="evenodd" clip-rule="evenodd" fill="#FFFFFF" d="M25,33.479v-6.34l0.278-0.751H15.37L15,27.139v6.34
				c0,0.699,0.56,1.265,1.251,1.265h7.497C24.441,34.743,25,34.177,25,33.479z M36.251,34.743h7.497
				c0.693,0,1.252-0.566,1.252-1.265v-6.34l-0.093-0.751h-9.814L35,27.139v6.34C35,34.178,35.56,34.743,36.251,34.743z
				 M64.629,26.388h-9.906L55,27.139v6.34c0,0.698,0.559,1.265,1.252,1.265h7.496c0.691,0,1.252-0.565,1.252-1.265v-6.34
				L64.629,26.388z M18.704,63h3.109V42.995h13.924V63h25.55V38.592H18.704V63z M38.914,42.995h19.838v13.792H38.914V42.995z"/>
		</g>
	</g>
</g>
<g id="矩形_3_拷贝_2_1_" opacity="0.8" enable-background="new    ">
	<g id="矩形_3_拷贝_2">
		<g>
			<path fill-rule="evenodd" clip-rule="evenodd" fill="#FFFFFF" d="M44.524,46.375c0.271-0.273,0.271-0.717,0-0.99
				c-0.271-0.272-0.71-0.272-0.98,0l-2.196,2.253c-0.271,0.273-0.271,0.717,0,0.99c0.135,0.137,0.304,0.205,0.473,0.205
				s0.338-0.068,0.473-0.205L44.524,46.375z M48.479,46.512c-0.271-0.273-0.71-0.273-0.98,0l-5.069,5.018
				c-0.236,0.273-0.236,0.718,0.034,0.99c0.135,0.137,0.304,0.205,0.473,0.205c0.17,0,0.338-0.068,0.473-0.205l5.07-5.018
				C48.748,47.229,48.748,46.784,48.479,46.512z"/>
		</g>
	</g>
</g>
</svg>
