<?xml version="1.0" encoding="utf-8"?>
<!-- Generator: Adobe Illustrator 16.0.0, SVG Export Plug-In . SVG Version: 6.00 Build 0)  -->
<!DOCTYPE svg PUBLIC "-//W3C//DTD SVG 1.1//EN" "http://www.w3.org/Graphics/SVG/1.1/DTD/svg11.dtd">
<svg version="1.1" id="Mag_x5F_Glass_1_" xmlns="http://www.w3.org/2000/svg" xmlns:xlink="http://www.w3.org/1999/xlink" x="0px"
	 y="0px" width="22px" height="22px" viewBox="0 0 22 22" enable-background="new 0 0 22 22" xml:space="preserve">
<g id="Mag_x5F_Glass">
	<g>
		<path fill-rule="evenodd" clip-rule="evenodd" fill="#AAAAAA" d="M21.678,20.205l-5.624-5.097
			c-0.084-0.081-0.163-0.134-0.243-0.183c2.805-3.38,2.603-8.314-0.624-11.433C11.725,0.148,6.098,0.162,2.618,3.525
			c-3.479,3.363-3.494,8.801-0.033,12.146c3.303,3.191,8.573,3.316,12.073,0.4l5.477,5.624c0.424,0.41,1.113,0.408,1.539-0.004
			S22.102,20.615,21.678,20.205z M8.766,16.482c-3.837,0-6.947-3.065-6.947-6.846s3.11-6.845,6.947-6.845
			c3.836,0,6.947,3.064,6.947,6.845S12.602,16.482,8.766,16.482z"/>
	</g>
</g>
</svg>
