<?xml version="1.0" encoding="utf-8"?>
<!-- Generator: Adobe Illustrator 16.0.0, SVG Export Plug-In . SVG Version: 6.00 Build 0)  -->
<!DOCTYPE svg PUBLIC "-//W3C//DTD SVG 1.1//EN" "http://www.w3.org/Graphics/SVG/1.1/DTD/svg11.dtd">
<svg version="1.1" xmlns="http://www.w3.org/2000/svg" xmlns:xlink="http://www.w3.org/1999/xlink" x="0px" y="0px" width="80px"
	 height="80px" viewBox="0 0 80 80" enable-background="new 0 0 80 80" xml:space="preserve">
<g id="矩形_1_拷贝_4_1_" enable-background="new    ">
	<g id="矩形_1_拷贝_4">
		<g>
			<path fill-rule="evenodd" clip-rule="evenodd" fill="#1EA8FF" d="M74,0H6C2.687,0,0,2.687,0,6v68c0,3.313,2.687,6,6,6h68
				c3.313,0,6-2.687,6-6V6C80,2.687,77.313,0,74,0z"/>
		</g>
	</g>
</g>
<g id="矩形_4_拷贝_1_" opacity="0.502" enable-background="new    ">
	<g id="矩形_4_拷贝">
		<g>
			<path fill-rule="evenodd" clip-rule="evenodd" fill="#FFFFFF" d="M31.092,56.615c0.069,0.031,0.135,0.069,0.204,0.1l0.051-0.1
				H31.092z M28.42,62.324l-3.325-4.151l-5.362-0.177l3.5-6.828c1.249,1.226-0.108-0.13-0.108-0.13
				c-1.384-1.301-1.502-1.773-2.565-3.346h-0.263L13,61.927l10.001,0.331L29.204,70l6.104-11.907
				c-1.382-0.349-2.725-0.802-4.012-1.378L28.42,62.324z M59.646,47.692h-0.266c-1.071,1.572-1.191,2.045-2.586,3.346
				c0,0-1.367,1.355-0.109,0.13l3.528,6.828l-5.404,0.177l-3.352,4.151l-2.897-5.609c-1.298,0.576-2.652,1.029-4.045,1.378
				L50.668,70l6.252-7.742L67,61.927L59.646,47.692z M48.509,56.615l0.052,0.1c0.069-0.03,0.136-0.068,0.205-0.1H48.509z"/>
		</g>
	</g>
</g>
<g id="形状_3_拷贝_2_1_" enable-background="new    ">
	<g id="形状_3_拷贝_2">
		<g>
			<path fill-rule="evenodd" clip-rule="evenodd" fill="#FFFFFF" d="M40.563,17.563C30.311,17.563,22,25.804,22,35.969
				s8.311,18.406,18.563,18.406s18.563-8.241,18.563-18.406S50.814,17.563,40.563,17.563z M51.791,47.218
				c-4.113-0.095-7.43-1.128-9.5-2.787c-2.043,1.659-5.359,2.692-9.472,2.787v-3.507c5.147-0.376,7.218-1.597,7.218-4.227v-2.755
				h4.537v2.755c0,2.63,2.096,3.851,7.217,4.227V47.218z M52.375,26.398H31.971v2.13h7.518v-1.065h5.369v1.065h6.444v3.193
				l-6.489-0.002l0.045,1.066h6.444v9.583l-4.367-0.067l0.071-6.321h-9.665v6.389h-4.296v-9.583h6.444v-1.064L32.05,31.72
				l-0.079,15.973H28.75V24.27h23.625V26.398z"/>
		</g>
	</g>
</g>
<g id="椭圆_1_拷贝_2_1_" opacity="0.8" enable-background="new    ">
	<g id="椭圆_1_拷贝_2">
		<g>
			<path fill-rule="evenodd" clip-rule="evenodd" fill="#FFFFFF" d="M40.563,12c-13.358,0-24.188,10.738-24.188,23.984
				s10.829,23.984,24.188,23.984S64.75,49.23,64.75,35.984S53.921,12,40.563,12z M40.563,56.625
				c-11.495,0-20.813-9.241-20.813-20.641s9.318-20.641,20.813-20.641c11.494,0,20.813,9.241,20.813,20.641
				S52.057,56.625,40.563,56.625z"/>
		</g>
	</g>
</g>
</svg>
