<?xml version="1.0" encoding="utf-8"?>
<!-- Generator: Adobe Illustrator 16.0.0, SVG Export Plug-In . SVG Version: 6.00 Build 0)  -->
<!DOCTYPE svg PUBLIC "-//W3C//DTD SVG 1.1//EN" "http://www.w3.org/Graphics/SVG/1.1/DTD/svg11.dtd">
<svg version="1.1" xmlns="http://www.w3.org/2000/svg" xmlns:xlink="http://www.w3.org/1999/xlink" x="0px" y="0px" width="58px"
	 height="58px" viewBox="0 0 58 58" enable-background="new 0 0 58 58" xml:space="preserve">
<g id="矩形_14_拷贝_2_1_" enable-background="new    ">
	<g id="矩形_14_拷贝_2">
		<g>
			<path fill-rule="evenodd" clip-rule="evenodd" fill="#DDE0FF" d="M44,27.672h-6.646V11.569h3.655V0H24.158l0.03,11.208h-4.063
				l0.031,16.479l-0.757-0.016l-0.169,16.12L44,44.246V27.672z M21.082,47.25L20.791,46l-4.203,0.008V18.483l-8.584-3.557L6,19.919
				l5.243,2.173v29.867h1.502c0.047,1.646,0.725,3.133,1.793,4.217C15.653,57.303,17.189,58,18.884,58
				c1.694,0,3.233-0.697,4.344-1.824c1.073-1.084,1.751-2.571,1.795-4.217l22.769-0.042v-4.75L21.082,47.25z M20.709,53.625
				c-0.467,0.473-1.111,0.767-1.824,0.767c-0.711,0-1.356-0.294-1.822-0.767c-0.468-0.472-0.756-1.125-0.756-1.847
				c0-0.72,0.288-1.375,0.756-1.845c0.466-0.474,1.111-0.766,1.822-0.766c0.713,0,1.357,0.292,1.824,0.766
				c0.465,0.47,0.753,1.125,0.753,1.845C21.462,52.501,21.174,53.153,20.709,53.625z"/>
		</g>
	</g>
</g>
<g id="矩形_14_拷贝_6_1_" enable-background="new    ">
	<g id="矩形_14_拷贝_6">
		<g>
			<path fill-rule="evenodd" clip-rule="evenodd" fill="#7480FF" d="M17,58h3v-1h-3V58z M12,51V22v-1l-4.412-1.471l1.294-3.235
				L16,18.667V47h5v-1h-4V18l-9-3l-2,5l5,2v29v1h1h1v-1H12z M44,28v-1h-6V12h3V0H24v11h-4v16h-1v17h25V28z M25,1h15v10H25V1z M21,12
				h16v15H21V12z M43,43H20V28h17h1h5V43z M13,52v2h1v-2H13z M47,47H21v1h26v3H25v1h23v-5H47z M23,55h1v-1h-1V55z M14,54v2h1v-2H14z
				 M24,54h1v-2h-1V54z M22,56h1v-1h-1V56z M20,57h2v-1h-2V57z M15,56v1h2v-1H15z"/>
		</g>
	</g>
</g>
<g id="椭圆_1_拷贝_5_3_" enable-background="new    ">
	<g id="椭圆_1_拷贝_5">
		<g>
			<ellipse fill-rule="evenodd" clip-rule="evenodd" fill="#FFFFFF" cx="34.8" cy="31.021" rx="17.2" ry="16.979"/>
		</g>
	</g>
</g>
<g id="椭圆_1_拷贝_5_2_" enable-background="new    ">
	<g id="椭圆_1_拷贝_5_1_">
		<g>
			<path fill-rule="evenodd" clip-rule="evenodd" fill="#7480FF" d="M34.8,14.041c-9.499,0-17.2,7.602-17.2,16.979
				S25.301,48,34.8,48S52,40.398,52,31.021S44.299,14.041,34.8,14.041z M34.8,46.043c-8.404,0-15.218-6.726-15.218-15.022
				S26.396,15.997,34.8,15.997c8.405,0,15.218,6.727,15.218,15.023S43.205,46.043,34.8,46.043z"/>
		</g>
	</g>
</g>
<g id="形状_6_拷贝_2_1_" enable-background="new    ">
	<g id="形状_6_拷贝_2">
		<g>
			<path fill-rule="evenodd" clip-rule="evenodd" fill="#7480FF" d="M37,25h-4v2l3.95-0.225L37,25z M39.1,31.021L41,40h4l-2-9
				L39.1,31.021z M37,27h-4v1h-9l0.05,1.959L33,30v10h4l-0.05-10.041L45,30v-2l-8.05-0.163L37,27z M25,40h4l2-9h-4L25,40z M24,22v2
				h21v-2H24z M39.1,26.775H43.4L45,25h-5L39.1,26.775z M30,25h-6l2.2,1.775h4.3L30,25z"/>
		</g>
	</g>
</g>
</svg>
