<?xml version="1.0" encoding="utf-8"?>
<!-- Generator: Adobe Illustrator 16.0.0, SVG Export Plug-In . SVG Version: 6.00 Build 0)  -->
<!DOCTYPE svg PUBLIC "-//W3C//DTD SVG 1.1//EN" "http://www.w3.org/Graphics/SVG/1.1/DTD/svg11.dtd">
<svg version="1.1" xmlns="http://www.w3.org/2000/svg" xmlns:xlink="http://www.w3.org/1999/xlink" x="0px" y="0px" width="58px"
	 height="58px" viewBox="0 0 58 58" enable-background="new 0 0 58 58" xml:space="preserve">
<g id="形状_4_1_" enable-background="new    ">
	<g id="形状_4">
		<g>
			<path fill-rule="evenodd" clip-rule="evenodd" fill="#FFD7E7" d="M9,4v51h36V4H9z M14.7,10.5H28V17H14.7V10.5z M20.4,44.167h-5.7
				V42h5.7V44.167z M37.4,37.666H14.7V35.5h22.7V37.666z M37.4,31.166H14.7V29h22.7V31.166z M37.4,24.667H14.7V22.5h22.7V24.667z"/>
		</g>
	</g>
</g>
<g id="矩形_13_拷贝_4_1_" enable-background="new    ">
	<g id="矩形_13_拷贝_4">
		<g>
			<path fill-rule="evenodd" clip-rule="evenodd" fill="#DD86A8" d="M9,4v1v49v1h1h34h1v-1V5V4H9z M44,54H10V5h34V54z"/>
		</g>
	</g>
</g>
<g id="椭圆_1_拷贝_7_3_" enable-background="new    ">
	<g id="椭圆_1_拷贝_7">
		<g>
			<ellipse fill-rule="evenodd" clip-rule="evenodd" fill="#FFFFFF" cx="32.8" cy="37.021" rx="17.2" ry="16.979"/>
		</g>
	</g>
</g>
<g id="椭圆_1_拷贝_7_2_" enable-background="new    ">
	<g id="椭圆_1_拷贝_7_1_">
		<g>
			<path fill-rule="evenodd" clip-rule="evenodd" fill="#D22B6C" d="M32.8,20.041c-9.499,0-17.2,7.602-17.2,16.979
				S23.301,54,32.8,54S50,46.398,50,37.021S42.299,20.041,32.8,20.041z M32.8,52.043c-8.404,0-15.218-6.726-15.218-15.022
				S24.396,21.997,32.8,21.997c8.405,0,15.218,6.727,15.218,15.023S41.205,52.043,32.8,52.043z"/>
		</g>
	</g>
</g>
<g id="形状_6_拷贝_5_1_" enable-background="new    ">
	<g id="形状_6_拷贝_5">
		<g>
			<path fill-rule="evenodd" clip-rule="evenodd" fill="#D22B6C" d="M23.133,45.508h4.953l1.489-4.242H24.2L23.133,45.508z
				 M36.025,41.266l1.404,4.242h5.047L41,41L36.025,41.266z M43,31v-2h-2v-2h-4v2h-9v-2h-4v2h-2v2h2l0.2,7.082h-2.15L22,40h21v-2h-2
				v-7H43z M28,31h9v1h-9V31z M37,38h-9v-1h9V38z M37,35h-9v-1l9.1-0.163L37,35z"/>
		</g>
	</g>
</g>
</svg>
