<?xml version="1.0" encoding="utf-8"?>
<!-- Generator: Adobe Illustrator 16.0.0, SVG Export Plug-In . SVG Version: 6.00 Build 0)  -->
<!DOCTYPE svg PUBLIC "-//W3C//DTD SVG 1.1//EN" "http://www.w3.org/Graphics/SVG/1.1/DTD/svg11.dtd">
<svg version="1.1" xmlns="http://www.w3.org/2000/svg" xmlns:xlink="http://www.w3.org/1999/xlink" x="0px" y="0px" width="67px"
	 height="67px" viewBox="0 0 67 67" enable-background="new 0 0 67 67" xml:space="preserve">
<g id="形状_4_拷贝_1_" enable-background="new    ">
	<g id="形状_4_拷贝">
		<g>
			<path fill-rule="evenodd" clip-rule="evenodd" fill="#C2E8FF" d="M10,4v60h42.146V4H10z M16.673,11.647h15.57v7.646h-15.57
				V11.647z M23.346,51.255h-6.673v-2.549h6.673V51.255z M43.248,43.607H16.673v-2.549h26.575V43.607z M43.248,35.961H16.673v-2.549
				h26.575V35.961z M43.248,28.313H16.673v-2.549h26.575V28.313z"/>
		</g>
	</g>
</g>
<g id="矩形_13_拷贝_8_1_" enable-background="new    ">
	<g id="矩形_13_拷贝_8">
		<g>
			<path fill-rule="evenodd" clip-rule="evenodd" fill="#5BC2FF" d="M10,4v60h42.146V4H10z M50.976,62.823H11.171V5.177h39.805
				V62.823z"/>
		</g>
	</g>
</g>
<g id="椭圆_1_拷贝_12_3_" enable-background="new    ">
	<g id="椭圆_1_拷贝_12">
		<g>
			<ellipse fill-rule="evenodd" clip-rule="evenodd" fill="#FFFFFF" cx="37.859" cy="42.842" rx="20.14" ry="19.981"/>
		</g>
	</g>
</g>
<g id="椭圆_1_拷贝_12_2_" enable-background="new    ">
	<g id="椭圆_1_拷贝_12_1_">
		<g>
			<path fill-rule="evenodd" clip-rule="evenodd" fill="#00A0FF" d="M37.859,22.86c-11.123,0-20.14,8.946-20.14,19.981
				s9.017,19.981,20.14,19.981S58,53.877,58,42.842S48.982,22.86,37.859,22.86z M37.878,60.507c-9.84,0-17.817-7.908-17.817-17.665
				c0-9.756,7.977-17.665,17.817-17.665s17.817,7.909,17.817,17.665C55.695,52.599,47.718,60.507,37.878,60.507z"/>
		</g>
	</g>
</g>
<g id="形状_1_1_" enable-background="new    ">
	<g id="形状_1">
		<g>
			<path fill-rule="evenodd" clip-rule="evenodd" fill="#00A0FF" d="M49.806,41.65l-4.476-8.941h-4.309l4.285,8.941H49.806z
				 M42.78,39.294H31.965l5.292-8.234h-5.232l-5.635,7.71v2.881l16.391-0.004V39.294z M27.561,53.412h21.073V42.823H27.561V53.412z
				 M32.244,45.177h11.708v5.882H32.244V45.177z"/>
		</g>
	</g>
</g>
</svg>
