<?xml version="1.0" encoding="utf-8"?>
<!-- Generator: Adobe Illustrator 16.0.0, SVG Export Plug-In . SVG Version: 6.00 Build 0)  -->
<!DOCTYPE svg PUBLIC "-//W3C//DTD SVG 1.1//EN" "http://www.w3.org/Graphics/SVG/1.1/DTD/svg11.dtd">
<svg version="1.1" xmlns="http://www.w3.org/2000/svg" xmlns:xlink="http://www.w3.org/1999/xlink" x="0px" y="0px" width="58px"
	 height="58px" viewBox="0 0 58 58" enable-background="new 0 0 58 58" xml:space="preserve">
<g id="矩形_2_拷贝_1_" enable-background="new    ">
	<g id="矩形_2_拷贝">
		<g>
			<path fill-rule="evenodd" clip-rule="evenodd" fill="#FFD8D8" d="M9,18v37h24.8L33,18H9z M16,34h-4v-4h4V34z M16,26h-4v-4h4V26z
				 M24,26h-4v-4h4V26z M39,4H21v12l11.725,0.089c1.188,0,2.15,0.968,2.15,2.161V55h4.092h0.208c0.594,0,1.075-0.484,1.075-1.081
				L39,4z"/>
		</g>
	</g>
</g>
<g id="椭圆_1_拷贝_3_3_" enable-background="new    ">
	<g id="椭圆_1_拷贝_3">
		<g>
			<ellipse fill-rule="evenodd" clip-rule="evenodd" fill="#FFFFFF" cx="33.797" cy="37.719" rx="17.203" ry="17.281"/>
		</g>
	</g>
</g>
<g id="椭圆_1_拷贝_3_2_" enable-background="new    ">
	<g id="椭圆_1_拷贝_3_1_">
		<g>
			<path fill-rule="evenodd" clip-rule="evenodd" fill="#FF5958" d="M33.797,20.438c-9.501,0-17.203,7.737-17.203,17.281
				S24.296,55,33.797,55S51,47.263,51,37.719S43.298,20.438,33.797,20.438z M33.781,52.969c-8.405,0-15.219-6.849-15.219-15.297
				s6.813-15.297,15.219-15.297S49,29.224,49,37.672S42.187,52.969,33.781,52.969z"/>
		</g>
	</g>
</g>
<g id="形状_5_拷贝_3_1_" enable-background="new    ">
	<g id="形状_5_拷贝_3">
		<g>
			<path fill-rule="evenodd" clip-rule="evenodd" fill="#FF5958" d="M33,38h-6v8h12v-1h-6V38z M35,38v5h3v-5H35z M23,46h3v-8h-3V46z
				 M40,46h5v-8h-5V46z M42,29v-1l-3.9-0.021v1.08L29,29v-1h-3v1h-3v8h22v-8H42z M38,34h-9v-3h9V34z"/>
		</g>
	</g>
</g>
<g id="矩形_13_拷贝_5_1_" enable-background="new    ">
	<g id="矩形_13_拷贝_5">
		<g>
			<polygon fill-rule="evenodd" clip-rule="evenodd" fill="#FF5958" points="20,3 20,17 8,17.169 8,55 30.575,55 30.575,53.919 
				9.075,53.919 9,18 33,18 33,21 34,21 34,17 20.9,17.169 20.9,4.081 39,4 39,22 40,22 40,3 			"/>
		</g>
	</g>
</g>
</svg>
