<?xml version="1.0" encoding="utf-8"?>
<!-- Generator: Adobe Illustrator 16.0.0, SVG Export Plug-In . SVG Version: 6.00 Build 0)  -->
<!DOCTYPE svg PUBLIC "-//W3C//DTD SVG 1.1//EN" "http://www.w3.org/Graphics/SVG/1.1/DTD/svg11.dtd">
<svg version="1.1" xmlns="http://www.w3.org/2000/svg" xmlns:xlink="http://www.w3.org/1999/xlink" x="0px" y="0px" width="58px"
	 height="58px" viewBox="0 0 58 58" enable-background="new 0 0 58 58" xml:space="preserve">
<g id="形状_2_1_" enable-background="new    ">
	<g id="形状_2">
		<g>
			<path fill-rule="evenodd" clip-rule="evenodd" fill="#FFD39B" d="M26.404,47.344l-1.991-3.77H23.75L24,20.011L48,20l-2-3h-2L21,9
				V6h-2l-8,10h-1l-3.001,2.066L7,20l8.275,0.011v23.563l-0.541,1.41l-1.109,1.724l-0.583,2.297l-1.208,0.542l-2.729,3.449
				l19.854,0.046L29,50.938l-2.596-1.55V47.344z M17,17h-5l7-9v7h-2V17z M22.218,23.594l-5.069,5.526v-9.109h1.841L22.218,23.594z
				 M17.149,30.968l4.762,5.284l-4.762,6.206V30.968z M22.304,43.574h-4.703l4.703-6.142V43.574z M22.304,35.065l-4.526-5.022
				l4.526-4.935V35.065z M22.304,22.066l-1.852-2.056h1.852V22.066z M21,15v-4l18,6H23v-2H21z M12,21H7v3h5V21z"/>
		</g>
	</g>
</g>
<g id="椭圆_1_拷贝_6_1_" enable-background="new    ">
	<g id="椭圆_1_拷贝_6">
		<g>
			<path fill-rule="evenodd" clip-rule="evenodd" fill="#FFA22A" d="M12,21H7v3h5V21z M11,23H8v-1h3V23z M11,50h-1v1H9v1v1h20v-1H11
				v-1h1v-1h1v-1h-2V50z M24,24v-4h24v-1h-1v-1h-1v-1H24v-1h-1v-1h-2v1h1v1h1v1h22v1H9v-1h8h1v-2h1v-1h-1h-1v1v1H8v1H7v1v1h8v24h-1
				v1v1h-1v1v2h1v-2h1v-1v-1h1v-1V20h7v4H24z M21,6h-2v9h2V6z"/>
		</g>
	</g>
</g>
<g id="椭圆_1_拷贝_8_1_" enable-background="new    ">
	<g id="椭圆_1_拷贝_8">
		<g>
			<ellipse fill-rule="evenodd" clip-rule="evenodd" fill="#FFFFFF" cx="34.8" cy="36.021" rx="17.2" ry="16.979"/>
		</g>
	</g>
</g>
<g id="椭圆_1_拷贝_9_1_" enable-background="new    ">
	<g id="椭圆_1_拷贝_9">
		<g>
			<path fill-rule="evenodd" clip-rule="evenodd" fill="#FFA22A" d="M34.8,19.041c-9.499,0-17.2,7.602-17.2,16.979
				C17.6,45.397,25.301,53,34.8,53S52,45.397,52,36.021C52,26.643,44.299,19.041,34.8,19.041z M34.8,51.043
				c-8.404,0-15.218-6.726-15.218-15.022S26.396,20.997,34.8,20.997c8.405,0,15.218,6.727,15.218,15.023S43.205,51.043,34.8,51.043z
				"/>
		</g>
	</g>
</g>
<g id="形状_6_拷贝_1_" enable-background="new    ">
	<g id="形状_6_拷贝">
		<g>
			<path fill-rule="evenodd" clip-rule="evenodd" fill="#FFA22A" d="M32,32h-2v-1h2v-1h-2v-1h2v-2h-8v2h4v1h-4v1h4v1h-4v12h2V34h1
				v10h3V34h2V32z M43,42V27H33v15h-1v2h12v-2H43z M40,42h-4v-4h4V42z M40,36h-4v-3h4V36z M40,31h-4v-2h4V31z"/>
		</g>
	</g>
</g>
</svg>
