<?xml version="1.0" encoding="utf-8"?>
<!-- Generator: Adobe Illustrator 16.0.0, SVG Export Plug-In . SVG Version: 6.00 Build 0)  -->
<!DOCTYPE svg PUBLIC "-//W3C//DTD SVG 1.1//EN" "http://www.w3.org/Graphics/SVG/1.1/DTD/svg11.dtd">
<svg version="1.1" xmlns="http://www.w3.org/2000/svg" xmlns:xlink="http://www.w3.org/1999/xlink" x="0px" y="0px" width="44px"
	 height="44px" viewBox="0 0 44 44" enable-background="new 0 0 44 44" xml:space="preserve">
<g id="形状_2_1_" enable-background="new    ">
	<g id="形状_2">
		<g>
			<path fill-rule="evenodd" clip-rule="evenodd" fill="#00A0FF" d="M0,0v44h44V0H0z M15.503,11.003c3.174,0,5.749,2.457,5.749,5.5
				c0,3.032-2.574,5.5-5.749,5.5c-3.175,0-5.748-2.468-5.748-5.5C9.755,13.46,12.328,11.003,15.503,11.003z M4.007,33
				c0,0,0.633-5.489,2.07-6.523c1.437-1.039,5.581-1.727,5.581-1.727s2.683,3.102,3.824,3.102c1.142,0,3.83-3.102,3.83-3.102
				s4.139,0.688,5.573,1.727C26.578,27.693,27,33,27,33H4.007z"/>
		</g>
	</g>
</g>
<g id="矩形_16_拷贝_4_xA0_图像_1_" opacity="0.8">
	<rect x="27.979" y="18.333" opacity="0.8" fill="#FFFFFF" width="11.938" height="2"/>
	<rect x="27.979" y="24.333" opacity="0.8" fill="#FFFFFF" width="11.938" height="2"/>
	<rect x="27.917" y="30.271" opacity="0.8" fill="#FFFFFF" width="11.938" height="2"/>
</g>
</svg>
