<?xml version="1.0" encoding="utf-8"?>
<!-- Generator: Adobe Illustrator 16.0.0, SVG Export Plug-In . SVG Version: 6.00 Build 0)  -->
<!DOCTYPE svg PUBLIC "-//W3C//DTD SVG 1.1//EN" "http://www.w3.org/Graphics/SVG/1.1/DTD/svg11.dtd">
<svg version="1.1" id="图层_1" xmlns="http://www.w3.org/2000/svg" xmlns:xlink="http://www.w3.org/1999/xlink" x="0px" y="0px"
	 width="44px" height="44px" viewBox="0 0 44 44" enable-background="new 0 0 44 44" xml:space="preserve">
<g id="形状_2_拷贝_2">
	<g>
		<rect fill="#7480FF" width="44" height="44"/>
	</g>
</g>
<g id="形状_5">
	<g>
		<polygon fill="#FFFFFF" points="27.008,22 20.26,29.453 16.704,26.551 15,28.475 20.543,33 29,23.656 		"/>
	</g>
</g>
<g id="矩形_5">
	<g>
		<path fill="#FFFFFF" d="M8.108,7.799L5,14h7l2.625-6.992h-5.25C8.893,7.008,8.324,7.361,8.108,7.799z M19.875,7.008L19,14h7
			l-0.875-6.992H19.875z M36.893,7.799c-0.218-0.438-0.785-0.791-1.267-0.791h-5.251L33,14h7L36.893,7.799z"/>
	</g>
</g>
<path fill="#FFFFFF" d="M8.083,36.922v-15h2v13h25v-13h2v15H8.083z"/>
<g>
	<g>
		<path fill-rule="evenodd" clip-rule="evenodd" fill="#FFFFFF" d="M5,18.984h7v-5H5V18.984z M19,18.984h7v-5h-7V18.984z M33,13.984
			v5h7v-5H33z"/>
	</g>
</g>
</svg>
