<?xml version="1.0" encoding="utf-8"?>
<!-- Generator: Adobe Illustrator 16.0.0, SVG Export Plug-In . SVG Version: 6.00 Build 0)  -->
<!DOCTYPE svg PUBLIC "-//W3C//DTD SVG 1.1//EN" "http://www.w3.org/Graphics/SVG/1.1/DTD/svg11.dtd">
<svg version="1.1" id="形状_1_xA0_图像_1_" xmlns="http://www.w3.org/2000/svg" xmlns:xlink="http://www.w3.org/1999/xlink"
	 x="0px" y="0px" width="50px" height="50px" viewBox="0 0 50 50" enable-background="new 0 0 50 50" xml:space="preserve">
<path fill-rule="evenodd" clip-rule="evenodd" fill="#28C7BD" d="M36.597,45.057c-6.336,0-11.472-5.16-11.472-11.527
	C25.125,27.161,30.261,22,36.597,22s11.473,5.161,11.473,11.529C48.069,39.896,42.933,45.057,36.597,45.057z M42.821,27.377
	l-8.823,9.094l-4.675-4.809l-2.554,2.512l7.229,7.176l11.341-11.424L42.821,27.377z M28.622,22.809H11.708v-1.786H6.375v5.36h5.333
	v-1.787h14.971c-1.742,1.953-2.92,4.416-3.283,7.146H11.708v-1.787H6.375v5.359h5.333v-1.785h11.557
	c0,3.436,1.298,6.561,3.414,8.932H3.931c-1.104,0-2-0.895-2-2V6.941c0-1.104,0.896-1.998,2-1.998h36.889c1.104,0,2,0.895,2,1.998
	v14.74c-1.857-0.988-3.974-1.553-6.223-1.553C33.603,20.129,30.848,21.133,28.622,22.809z M36.597,13.876H11.708V12.09H6.375v5.359
	h5.333v-1.787h24.889V13.876z"/>
</svg>
