<?xml version="1.0" encoding="utf-8"?>
<!-- Generator: Adobe Illustrator 16.0.0, SVG Export Plug-In . SVG Version: 6.00 Build 0)  -->
<!DOCTYPE svg PUBLIC "-//W3C//DTD SVG 1.1//EN" "http://www.w3.org/Graphics/SVG/1.1/DTD/svg11.dtd">
<svg version="1.1" xmlns="http://www.w3.org/2000/svg" xmlns:xlink="http://www.w3.org/1999/xlink" x="0px" y="0px" width="58px"
	 height="58px" viewBox="0 0 58 58" enable-background="new 0 0 58 58" xml:space="preserve">
<g id="圆角矩形_1_1_" enable-background="new    ">
	<g id="圆角矩形_1">
		<g>
			<path fill-rule="evenodd" clip-rule="evenodd" fill="#C2E8FF" d="M8,55h14V41H8V55z M24,55h14V41H24V55z M8,40h14V26H8V40z
				 M39.5,13c2.485,0,4.5-2.238,4.5-5s-2.015-5-4.5-5S35,5.238,35,8S37.015,13,39.5,13z M38.094,14.188l-8.344,7.646L44,29V19
				l-2.438-4.844L38.094,14.188z M18.781,19.281l4.385-5.677l5.208,4.438l2.406-3.229l-10-7.844L12.625,17.25L23,25.147l1.406-1.647
				L18.781,19.281z M21.835,17.359c-0.725,0.97-0.774,2.157-0.11,2.653l5.207,3.891l2.623-3.512l-5.207-3.891
				C23.685,16.005,22.559,16.39,21.835,17.359z"/>
		</g>
	</g>
</g>
<g id="矩形_14_拷贝_4_1_" enable-background="new    ">
	<g id="矩形_14_拷贝_4">
		<g>
			<path fill-rule="evenodd" clip-rule="evenodd" fill="#5BC2FF" d="M26,39H9V27h11v-1H8v14h18V39z M40,13c2.762,0,5-2.238,5-5
				s-2.238-5-5-5s-5,2.238-5,5S37.238,13,40,13z M40,4c2.209,0,4,1.791,4,4s-1.791,4-4,4s-4-1.791-4-4S37.791,4,40,4z
				 M23.558,25.219l-10.153-8.12l7.497-9.372l9.184,7.323L27.271,18l0.958,0.729l3.396-3.604l-0.007-0.005l0.06-0.053L20.744,6.322
				l-8.12,10.152L12,17.256L22.933,26L23.558,25.219z M25,42h1v-1H8v14h14V42h2v13h14v-1H25V42z M21,54H9V42h12V54z M38,14v0.011
				l-7,6.451l0.744,0.669L38.396,15H42v-1H38z M42,15v2h1v-2H42z M43,23h1v-6h-1V23z"/>
		</g>
	</g>
</g>
<g id="矩形_13_1_" enable-background="new    ">
	<g id="矩形_13">
		<g>
			<polygon fill-rule="evenodd" clip-rule="evenodd" fill="#5BC2FF" points="23.206,13.496 22.586,14.281 27.521,18.167 28,17.313 
							"/>
		</g>
	</g>
</g>
<g id="矩形_13_拷贝_1_" enable-background="new    ">
	<g id="矩形_13_拷贝">
		<g>
			
				<rect x="21.491" y="18.284" transform="matrix(0.6195 -0.785 0.785 0.6195 -8.3403 25.3618)" fill-rule="evenodd" clip-rule="evenodd" fill="#5BC2FF" width="1" height="6"/>
		</g>
	</g>
</g>
<g id="矩形_13_拷贝_3_1_" enable-background="new    ">
	<g id="矩形_13_拷贝_3">
		<g>
			<polygon fill-rule="evenodd" clip-rule="evenodd" fill="#5BC2FF" points="23.229,13.5 18.646,19.229 19.438,19.896 
				23.917,14.063 			"/>
		</g>
	</g>
</g>
<g id="椭圆_1_拷贝_4_3_" enable-background="new    ">
	<g id="椭圆_1_拷贝_4">
		<g>
			<ellipse fill-rule="evenodd" clip-rule="evenodd" fill="#FFFFFF" cx="33.807" cy="37.028" rx="17.194" ry="16.972"/>
		</g>
	</g>
</g>
<g id="椭圆_1_拷贝_4_2_" enable-background="new    ">
	<g id="椭圆_1_拷贝_4_1_">
		<g>
			<path fill-rule="evenodd" clip-rule="evenodd" fill="#00A0FF" d="M33.807,20.056c-9.497,0-17.194,7.599-17.194,16.972
				C16.612,46.401,24.31,54,33.807,54C43.303,54,51,46.401,51,37.027C51,27.654,43.303,20.056,33.807,20.056z M33.807,52.044
				c-8.4,0-15.209-6.723-15.209-15.017c0-8.293,6.809-15.016,15.209-15.016c8.398,0,15.208,6.723,15.208,15.016
				C49.015,45.321,42.205,52.044,33.807,52.044z"/>
		</g>
	</g>
</g>
<g id="形状_6_拷贝_3_1_" enable-background="new    ">
	<g id="形状_6_拷贝_3">
		<g>
			<path fill-rule="evenodd" clip-rule="evenodd" fill="#00A0FF" d="M27,29h13l1.325,2.775l3.225-0.25L43,27H25l-1.95,4.775h3.225
				L27,29z M23,33v2h2l-2,10h4l2-10h10v8h-2v2h8V33H23z"/>
		</g>
	</g>
</g>
</svg>
