<?xml version="1.0" encoding="utf-8"?>
<!-- Generator: Adobe Illustrator 16.0.0, SVG Export Plug-In . SVG Version: 6.00 Build 0)  -->
<!DOCTYPE svg PUBLIC "-//W3C//DTD SVG 1.1//EN" "http://www.w3.org/Graphics/SVG/1.1/DTD/svg11.dtd">
<svg version="1.1" id="形状_1_xA0_图像_1_" xmlns="http://www.w3.org/2000/svg" xmlns:xlink="http://www.w3.org/1999/xlink"
	 x="0px" y="0px" width="50px" height="50px" viewBox="0 0 50 50" enable-background="new 0 0 50 50" xml:space="preserve">
<path fill-rule="evenodd" clip-rule="evenodd" fill="#28C7BD" d="M43.5,46.5h-1c0,1.104-0.896,2-2,2h-34c-1.104,0-2-0.896-2-2v-43
	c0-1.104,0.896-2,2-2h34c1.104,0,2,0.896,2,2h1c1.104,0,2,0.896,2,2v39C45.5,45.604,44.604,46.5,43.5,46.5z M9.5,33.5h16v-2h-16
	V33.5z M37.5,7.5h-28v2h28V7.5z M37.5,13.5h-28v2h28V13.5z M37.5,19.5h-28v2h28V19.5z M37.5,25.5h-28v2h28V25.5z M43.5,6.5
	c0-0.738-0.404-1.376-1-1.723v40.445c0.596-0.347,1-0.984,1-1.723V6.5z"/>
</svg>
