<?xml version="1.0" encoding="utf-8"?>
<!-- Generator: Adobe Illustrator 16.0.0, SVG Export Plug-In . SVG Version: 6.00 Build 0)  -->
<!DOCTYPE svg PUBLIC "-//W3C//DTD SVG 1.1//EN" "http://www.w3.org/Graphics/SVG/1.1/DTD/svg11.dtd">
<svg version="1.1" id="图层_1" xmlns="http://www.w3.org/2000/svg" xmlns:xlink="http://www.w3.org/1999/xlink" x="0px" y="0px"
	 width="60px" height="42px" viewBox="0 0 60 42" enable-background="new 0 0 60 42" xml:space="preserve">
<g>
	<g>
		<path fill-rule="evenodd" clip-rule="evenodd" fill="#FE8320" d="M16,15v13h3V16v-1H16z M33,9h-7l-1,2l5.063-0.022l1.054,4.101
			h-7.833L25,9h-4l-2,7h2l0.404,1.156L33,17v-1h2L33,9z M32,18l-2.363,5.708L28,18h-4l2,8h3l-1,1h-8v2h15v-2h-3l3-9H32z M23,18h-3
			l2,8h3L23,18z M8,28h2V15H8V28z M15,29V13h4v-2h-4V9h-4v2H8v2h3v16H15z M3,31V6c0-1.657,1.344-3,3-3h41c1.656,0,3,1.343,3,3v14h3
			V3c0-1.657-1.344-3-3-3H3C1.344,0,0,1.343,0,3v31c0,1.657,1.344,3,3,3h34v-3H6C4.344,34,3,32.657,3,31z M40,22v4h20v-4H40z M40,32
			h20v-4H40V32z M40,38h12v-4H40V38z"/>
	</g>
</g>
</svg>
