<?xml version="1.0" encoding="utf-8"?>
<!-- Generator: Adobe Illustrator 16.0.0, SVG Export Plug-In . SVG Version: 6.00 Build 0)  -->
<!DOCTYPE svg PUBLIC "-//W3C//DTD SVG 1.1//EN" "http://www.w3.org/Graphics/SVG/1.1/DTD/svg11.dtd">
<svg version="1.1" id="图层_1" xmlns="http://www.w3.org/2000/svg" xmlns:xlink="http://www.w3.org/1999/xlink" x="0px" y="0px"
	 width="60px" height="42px" viewBox="0 0 60 42" enable-background="new 0 0 60 42" xml:space="preserve">
<g>
	<g>
		<path fill="#00A0FF" d="M3,31V6c0-1.657,1.343-3,3-3h41c1.656,0,3,1.343,3,3v14h3V3c0-1.657-1.344-3-3-3H3C1.343,0,0,1.343,0,3v31
			c0,1.657,1.343,3,3,3h34v-3H6C4.343,34,3,32.657,3,31z M40,22v4h20v-4H40z M40,32h20v-4H40V32z M40,38h12v-4H40V38z M8,28h9v-2H8
			V28z M35,12v-2h-3V8h-4v2l-3.517,0.093L26,8h-6l-1.885,3.762L17,12v1h-3l3.453-5.015h-5.872L8,13v2h4l-3.99,6.312L8,23h9v-2h-4
			l4-6v-1h3v15h15v-2h-3v-3l2.949-0.021v-2.01L32,22v-4l2.949,0.025v-2.011L32,16v-4H35z M28,27h-3v-3h3V27z M28,22h-3v-4h3V22z
			 M28,16h-3v-4h3V16z"/>
	</g>
</g>
</svg>
