<?xml version="1.0" encoding="utf-8"?>
<!-- Generator: Adobe Illustrator 16.0.0, SVG Export Plug-In . SVG Version: 6.00 Build 0)  -->
<!DOCTYPE svg PUBLIC "-//W3C//DTD SVG 1.1//EN" "http://www.w3.org/Graphics/SVG/1.1/DTD/svg11.dtd">
<svg version="1.1" id="图层_1" xmlns="http://www.w3.org/2000/svg" xmlns:xlink="http://www.w3.org/1999/xlink" x="0px" y="0px"
	 width="60px" height="42px" viewBox="0 0 60 42" enable-background="new 0 0 60 42" xml:space="preserve">
<g>
	<g>
		<path fill-rule="evenodd" clip-rule="evenodd" fill="#F1483A" d="M50.25,0h-47c-1.657,0-3,1.344-3,3v31c0,1.657,1.343,3,3,3h32v-3
			h-29c-1.657,0-3-1.343-3-3V6c0-1.656,1.343-3,3-3h41c1.656,0,3,1.344,3,3v14h3V3C53.25,1.344,51.906,0,50.25,0z M35.25,12h-25
			c-0.552,0-1,0.447-1,1v11c0,0.553,0.448,1,1,1h3v5c0,1.104,0.896,2,2,2h1c1.104,0,2-0.896,2-2v-5h8v5c0,1.104,0.896,2,2,2h1
			c1.104,0,2-0.896,2-2v-5h4c0.553,0,1-0.447,1-1V13C36.25,12.447,35.803,12,35.25,12z M14.25,20l-2-2l2-3h3L14.25,20z M16.25,22
			l4-7h3l-4,7H16.25z M25.25,22h-3l4-7h3L25.25,22z M31.25,22h-3l3-5l2,2L31.25,22z M13.25,6v5h5V6H13.25z M27.25,6v5h5V6H27.25z
			 M45.75,22c-3.59,0-6.5,2.867-6.5,6.405c0,0.831,0.16,1.625,0.453,2.354h-0.008l0.033,0.062c0.166,0.401,0.371,0.782,0.613,1.139
			L45.75,42l5.408-10.041c0.242-0.356,0.447-0.737,0.613-1.139l0.033-0.062h-0.008c0.293-0.729,0.453-1.522,0.453-2.354
			C52.25,24.867,49.34,22,45.75,22z M45.727,31.418c-1.775,0-3.216-1.418-3.216-3.168s1.44-3.168,3.216-3.168
			c1.777,0,3.217,1.418,3.217,3.168S47.504,31.418,45.727,31.418z"/>
	</g>
</g>
</svg>
