<?xml version="1.0" encoding="utf-8"?>
<!-- Generator: Adobe Illustrator 16.0.0, SVG Export Plug-In . SVG Version: 6.00 Build 0)  -->
<!DOCTYPE svg PUBLIC "-//W3C//DTD SVG 1.1//EN" "http://www.w3.org/Graphics/SVG/1.1/DTD/svg11.dtd">
<svg version="1.1" id="图层_1" xmlns="http://www.w3.org/2000/svg" xmlns:xlink="http://www.w3.org/1999/xlink" x="0px" y="0px"
	 width="60px" height="42px" viewBox="0 0 60 42" enable-background="new 0 0 60 42" xml:space="preserve">
<g>
	<g>
		<path fill-rule="evenodd" clip-rule="evenodd" fill="#FE8320" d="M56.342,21l-9.457,11.602l-4.226-4.176L39,32.054L47.029,39
			L60,24.629L56.342,21z M24,17h-3l2,8h3L24,17z M17,14v13h3V15v-1H17z M33,17l-2.363,5.707L29,17h-4l2,8h3l-1,1h-8v2h15v-2h-3l3-9
			H33z M9,27h2V14H9V27z M34,8h-7l-1,2l5.063-0.021l1.054,4.101h-7.833L26,8h-4l-2,7h2l0.404,1.156L34,16v-1h2L34,8z M16,28V12h4v-2
			h-4V8h-4v2H9v2h3v16H16z M3,31V6c0-1.656,1.343-3,3-3h41c1.656,0,3,1.344,3,3v14h3V3c0-1.656-1.344-3-3-3H3C1.343,0,0,1.344,0,3
			v31c0,1.656,1.343,3,3,3h34v-3H6C4.343,34,3,32.656,3,31z"/>
	</g>
</g>
</svg>
