<?xml version="1.0" encoding="utf-8"?>
<!-- Generator: Adobe Illustrator 16.0.0, SVG Export Plug-In . SVG Version: 6.00 Build 0)  -->
<!DOCTYPE svg PUBLIC "-//W3C//DTD SVG 1.1//EN" "http://www.w3.org/Graphics/SVG/1.1/DTD/svg11.dtd">
<svg version="1.1" id="图层_1" xmlns="http://www.w3.org/2000/svg" xmlns:xlink="http://www.w3.org/1999/xlink" x="0px" y="0px"
	 width="60px" height="42px" viewBox="0 0 60 42" enable-background="new 0 0 60 42" xml:space="preserve">
<g>
	<g>
		<path fill-rule="evenodd" clip-rule="evenodd" fill="#F1483A" d="M3,31V6c0-1.657,1.344-3,3-3h41c1.656,0,3,1.343,3,3v14h3V3
			c0-1.657-1.344-3-3-3H3C1.344,0,0,1.343,0,3v31c0,1.657,1.344,3,3,3h34v-3H6C4.344,34,3,32.657,3,31z M26.414,14.521
			c0.173-0.174,0.219-0.468,0.146-0.707s-0.271-0.458-0.51-0.501L24.49,13.21c-0.3-0.041-0.504-0.041-0.666-0.022
			c-0.4-0.782-0.945-1.449-1.572-2.009c0.042-0.159,0.074-0.355,0.089-0.645l0.208-1.588c0.001-0.251-0.171-0.495-0.387-0.614
			c-0.216-0.121-0.505-0.133-0.701,0.01l-1.154,1.061c-0.197,0.158-0.328,0.286-0.429,0.403c-0.819-0.27-1.687-0.396-2.569-0.32
			c-0.081-0.127-0.186-0.271-0.34-0.448L16.02,7.745c-0.171-0.183-0.458-0.232-0.691-0.163c-0.232,0.07-0.44,0.27-0.478,0.515
			l-0.074,1.601c-0.026,0.234-0.03,0.414-0.023,0.563c-0.765,0.42-1.409,0.997-1.937,1.664c-0.15-0.043-0.333-0.081-0.592-0.104
			l-1.551-0.244c-0.242-0.012-0.477,0.157-0.588,0.375c-0.113,0.221-0.122,0.519,0.018,0.726l1.049,1.211
			c0.176,0.235,0.313,0.383,0.436,0.493c-0.215,0.81-0.302,1.663-0.206,2.532c-0.148,0.073-0.322,0.187-0.558,0.393L9.58,18.253
			c-0.176,0.167-0.221,0.458-0.148,0.699c0.072,0.239,0.271,0.461,0.512,0.507l1.563,0.11c0.354,0.053,0.586,0.057,0.756,0.029
			c0.404,0.716,0.932,1.327,1.531,1.843c-0.078,0.155-0.131,0.417-0.159,0.823l-0.212,1.585c-0.009,0.25,0.16,0.49,0.377,0.611
			c0.215,0.119,0.506,0.133,0.707-0.005l1.161-1.058c0.335-0.258,0.519-0.451,0.599-0.606c0.73,0.216,1.497,0.319,2.275,0.264
			c0.045,0.173,0.182,0.405,0.461,0.74l0.943,1.294c0.166,0.183,0.452,0.234,0.684,0.165c0.232-0.07,0.445-0.272,0.487-0.518
			l0.079-1.602c0.053-0.422,0.049-0.694,0.002-0.866c0.69-0.382,1.277-0.895,1.773-1.48c0.155,0.083,0.415,0.142,0.831,0.172
			l1.554,0.239c0.244,0.006,0.479-0.165,0.592-0.386c0.115-0.219,0.122-0.515-0.019-0.719l-1.054-1.204
			c-0.242-0.316-0.428-0.501-0.58-0.592c0.22-0.762,0.324-1.565,0.268-2.389c0.154-0.071,0.346-0.201,0.608-0.438L26.414,14.521z
			 M18.996,19.695c-1.832,0.552-3.779-0.533-4.348-2.424c-0.57-1.892,0.455-3.872,2.287-4.424c1.834-0.552,3.781,0.534,4.35,2.426
			C21.855,17.164,20.83,19.144,18.996,19.695z M35.912,23.399c-0.188-0.11-0.327-0.168-0.439-0.201
			c-0.059-0.628-0.243-1.219-0.512-1.764c0.069-0.093,0.145-0.211,0.23-0.397l0.563-0.984c0.066-0.165,0.018-0.374-0.092-0.514
			c-0.111-0.137-0.301-0.229-0.468-0.189l-1.053,0.371c-0.175,0.049-0.297,0.097-0.394,0.146c-0.475-0.406-1.02-0.732-1.627-0.932
			c-0.02-0.105-0.051-0.229-0.104-0.389l-0.292-1.118c-0.066-0.169-0.241-0.281-0.418-0.301c-0.172-0.021-0.365,0.052-0.456,0.202
			l-0.476,1.032c-0.08,0.147-0.131,0.264-0.167,0.364c-0.622,0.062-1.206,0.26-1.735,0.55c-0.089-0.071-0.2-0.147-0.365-0.234
			l-0.966-0.597c-0.159-0.077-0.357-0.03-0.494,0.082c-0.132,0.11-0.219,0.306-0.183,0.482l0.375,1.092
			c0.054,0.203,0.107,0.339,0.16,0.445c-0.359,0.471-0.645,1.009-0.813,1.604c-0.117,0.006-0.265,0.032-0.476,0.102l-1.081,0.274
			c-0.162,0.06-0.27,0.238-0.286,0.418c-0.015,0.177,0.06,0.378,0.206,0.476l1.013,0.51c0.222,0.135,0.377,0.203,0.495,0.233
			c0.08,0.584,0.268,1.135,0.529,1.641c-0.094,0.081-0.2,0.239-0.326,0.499l-0.564,0.98c-0.07,0.164-0.022,0.369,0.087,0.509
			c0.112,0.139,0.302,0.231,0.474,0.195l1.057-0.366c0.292-0.078,0.467-0.152,0.563-0.232c0.428,0.347,0.91,0.631,1.445,0.812
			c-0.017,0.126,0.012,0.318,0.109,0.618l0.285,1.117c0.062,0.165,0.238,0.278,0.41,0.299c0.176,0.018,0.369-0.054,0.465-0.202
			l0.479-1.033c0.147-0.263,0.218-0.441,0.233-0.569c0.563-0.059,1.09-0.229,1.577-0.473c0.08,0.097,0.237,0.208,0.509,0.346
			l0.968,0.597c0.162,0.073,0.364,0.025,0.497-0.087c0.135-0.112,0.218-0.305,0.179-0.478l-0.382-1.088
			c-0.078-0.276-0.152-0.449-0.228-0.552c0.349-0.439,0.634-0.938,0.817-1.495c0.121-0.003,0.283-0.036,0.522-0.116l1.085-0.279
			c0.161-0.064,0.268-0.245,0.285-0.423c0.01-0.18-0.062-0.379-0.211-0.477L35.912,23.399z M30.519,26.119
			c-1.368-0.153-2.379-1.413-2.249-2.815c0.121-1.403,1.334-2.418,2.703-2.265c1.371,0.151,2.376,1.412,2.251,2.819
			C33.1,25.257,31.889,26.271,30.519,26.119z M57,24h-4l-4,5l-4.096-5H41l5,5h-5v2h6v2h-6v2h6v6h4v-6h6v-2h-6v-2h6v-2h-5L57,24z"/>
	</g>
</g>
</svg>
