<?xml version="1.0" encoding="utf-8"?>
<!-- Generator: Adobe Illustrator 16.0.0, SVG Export Plug-In . SVG Version: 6.00 Build 0)  -->
<!DOCTYPE svg PUBLIC "-//W3C//DTD SVG 1.1//EN" "http://www.w3.org/Graphics/SVG/1.1/DTD/svg11.dtd">
<svg version="1.1" id="图层_1" xmlns="http://www.w3.org/2000/svg" xmlns:xlink="http://www.w3.org/1999/xlink" x="0px" y="0px"
	 width="48px" height="48px" viewBox="0 0 48 48" enable-background="new 0 0 48 48" xml:space="preserve">
<g>
	<g>
		<path fill="#FE8320" d="M24.004,4.808C13.645,4.808,5.246,13.4,5.246,24s8.398,19.192,18.758,19.192
			c10.36,0,18.758-8.593,18.758-19.192S34.364,4.808,24.004,4.808z M12.504,32h-2V19h2V32z M17.504,33h-4V17h-3v-2h3v-2h4v2h4v2h-4
			V33z M21.504,32h-3V19h3v1l2-7h4l-1.716,6.079h7.834l-1.055-4.101L27.504,15l1-2h7l2,7h-2v1l-11.596,0.156L23.504,20h-2V32z
			 M25.504,22l2,8h-3l-2-8H25.504z M37.504,31v2h-15v-2h8l1-1h-3l-2-8h4l1.637,5.708L34.504,22h3l-3,9H37.504z M47.496,23.838
			C47.496,10.671,36.975,0,24,0C11.027,0,0.51,10.671,0.504,23.838C0.51,37.004,11.027,47.673,24,47.673
			c5.566,0,10.673-1.974,14.699-5.254L44.104,48l2.785-2.677l-5.416-5.59C45.207,35.514,47.496,29.954,47.496,23.838z M24.004,46.2
			C12.019,46.2,2.303,36.261,2.303,24S12.019,1.8,24.004,1.8S45.706,11.739,45.706,24S35.989,46.2,24.004,46.2z"/>
	</g>
</g>
</svg>
