<?xml version="1.0" encoding="utf-8"?>
<!-- Generator: Adobe Illustrator 16.0.0, SVG Export Plug-In . SVG Version: 6.00 Build 0)  -->
<!DOCTYPE svg PUBLIC "-//W3C//DTD SVG 1.1//EN" "http://www.w3.org/Graphics/SVG/1.1/DTD/svg11.dtd">
<svg version="1.1" id="形状_1_xA0_图像_1_" xmlns="http://www.w3.org/2000/svg" xmlns:xlink="http://www.w3.org/1999/xlink"
	 x="0px" y="0px" width="50px" height="50px" viewBox="0 0 50 50" enable-background="new 0 0 50 50" xml:space="preserve">
<path fill-rule="evenodd" clip-rule="evenodd" fill="#F1483A" d="M44.634,45.508H19.557c-1.858,0-3.365-1.631-3.365-3.643v-1.714
	c0-2.013,1.507-3.644,3.365-3.644h25.077c1.858,0,3.364,1.631,3.364,3.644v1.714C47.998,43.877,46.492,45.508,44.634,45.508z
	 M21.994,39.518c-0.867,0-1.568,0.748-1.568,1.672c0,0.923,0.701,1.672,1.568,1.672c0.865,0,1.568-0.749,1.568-1.672
	C23.563,40.266,22.859,39.518,21.994,39.518z M42.209,39.518c-0.873,0-1.581,0.748-1.581,1.672c0,0.923,0.708,1.672,1.581,1.672
	s1.582-0.749,1.582-1.672C43.791,40.266,43.082,39.518,42.209,39.518z M41.455,35.257H28.367c-1.291,0-2.336-1.119-2.336-2.5v-3.501
	c0-1.381,1.045-2.5,2.336-2.5h2.116h7.788h3.184c1.211,0,2.207,0.987,2.324,2.25H36.08c-0.452,0-0.818,0.393-0.818,0.875
	c0,0.483,0.366,0.876,0.818,0.876h7.711v2C43.791,34.138,42.745,35.257,41.455,35.257z M15.453,10.129
	c-1.59-1.254-3.389-0.25-3.389-0.25L4.469,15.88l10.166,5.75c-2.981,3.333-6.543,2.251-6.543,2.251s-4.125-1.194-5.96-3.751
	c0,0-0.358-3.446,0.116-5L12.882,4.878c0.794-0.79,1.87-0.125,1.87-0.125l23.52,22.003h-7.788L15.453,10.129z"/>
</svg>
