<?xml version="1.0" encoding="utf-8"?>
<!-- Generator: Adobe Illustrator 16.0.0, SVG Export Plug-In . SVG Version: 6.00 Build 0)  -->
<!DOCTYPE svg PUBLIC "-//W3C//DTD SVG 1.1//EN" "http://www.w3.org/Graphics/SVG/1.1/DTD/svg11.dtd">
<svg version="1.1" id="形状_1_xA0_图像_1_" xmlns="http://www.w3.org/2000/svg" xmlns:xlink="http://www.w3.org/1999/xlink"
	 x="0px" y="0px" width="50px" height="50px" viewBox="0 0 50 50" enable-background="new 0 0 50 50" xml:space="preserve">
<g>
	<g>
		<path fill="#28C7BD" d="M34.414,32.806c-2.116,0-3.831,1.694-3.831,3.785c0,2.09,1.715,3.785,3.831,3.785s3.832-1.695,3.832-3.785
			C38.246,34.5,36.53,32.806,34.414,32.806z M20.542,13.086c-3.541,0-6.413,2.836-6.413,6.335c0,3.498,2.872,6.334,6.413,6.334
			c3.542,0,6.414-2.836,6.414-6.334C26.956,15.922,24.084,13.086,20.542,13.086z M45.001,5.006c-13.334-3.999-26.668-3.999-40.002,0
			c-4,13.329-4,26.659,0,39.988c13.334,3.999,26.668,3.999,40.002,0C49.001,31.665,49.001,18.335,45.001,5.006z M24.099,28.984
			l-1.459,3.142c-0.684,0.109-1.383,0.169-2.098,0.169c-0.847,0-1.674-0.083-2.477-0.235L16.7,28.873
			c-1.009-0.4-1.939-0.952-2.761-1.63l-3.489,0.323c-0.963-1.161-1.722-2.495-2.229-3.944l2.112-2.763
			c-0.067-0.471-0.104-0.95-0.104-1.438c0-0.593,0.055-1.173,0.152-1.736L8.353,14.86c0.55-1.433,1.351-2.741,2.35-3.877
			l3.477,0.425c0.841-0.653,1.785-1.181,2.808-1.552l1.459-3.143c0.683-0.109,1.383-0.168,2.097-0.168
			c0.848,0,1.674,0.082,2.477,0.235l1.365,3.187c1.01,0.4,1.939,0.952,2.761,1.629l3.489-0.323c0.963,1.163,1.722,2.496,2.229,3.945
			l-2.111,2.763c0.066,0.47,0.104,0.95,0.104,1.439c0,0.591-0.054,1.171-0.152,1.735l2.029,2.825
			c-0.549,1.432-1.351,2.74-2.35,3.876l-3.477-0.425C26.065,28.085,25.12,28.613,24.099,28.984z M40.576,36.591
			c0,0.354-0.032,0.7-0.091,1.037l1.212,1.688c-0.328,0.855-0.808,1.638-1.403,2.316l-2.078-0.254
			c-0.502,0.391-1.066,0.706-1.677,0.927l-0.872,1.878c-0.408,0.065-0.826,0.1-1.253,0.1c-0.506,0-1.001-0.049-1.479-0.141
			l-0.816-1.902c-0.602-0.24-1.158-0.569-1.649-0.975l-2.084,0.193c-0.575-0.695-1.028-1.491-1.331-2.356l1.262-1.651
			c-0.041-0.281-0.063-0.567-0.063-0.859c0-0.354,0.031-0.7,0.091-1.037l-1.212-1.688c0.328-0.855,0.807-1.639,1.403-2.316
			l2.077,0.254c0.502-0.391,1.066-0.706,1.678-0.927L33.161,29c0.408-0.065,0.826-0.101,1.253-0.101
			c0.507,0,1.001,0.049,1.479,0.141l0.816,1.903c0.603,0.239,1.158,0.568,1.649,0.974l2.084-0.193
			c0.575,0.695,1.028,1.49,1.332,2.356l-1.263,1.651C40.554,36.012,40.576,36.299,40.576,36.591z"/>
	</g>
</g>
</svg>
