<?xml version="1.0" encoding="utf-8"?>
<!-- Generator: Adobe Illustrator 16.0.0, SVG Export Plug-In . SVG Version: 6.00 Build 0)  -->
<!DOCTYPE svg PUBLIC "-//W3C//DTD SVG 1.1//EN" "http://www.w3.org/Graphics/SVG/1.1/DTD/svg11.dtd">
<svg version="1.1" id="图层_1" xmlns="http://www.w3.org/2000/svg" xmlns:xlink="http://www.w3.org/1999/xlink" x="0px" y="0px"
	 width="48px" height="48px" viewBox="0 0 48 48" enable-background="new 0 0 48 48" xml:space="preserve">
<path fill-rule="evenodd" clip-rule="evenodd" fill="#FE8320" d="M46.105,14.744h-1.51l-2.205-4.121h4.088l1.021,1.83L46.105,14.744
	z M37.911,14.744l-2.672-4.121h4.087l2.789,4.121H37.911z M31.152,14.738v-4.115h2.043l2.129,4.121L31.152,14.738z M30.131,16.797
	h-4.088V9.594h4.088V16.797z M23.141,18.918l-7.314-0.063v8.232c0,0.473-0.727,1.031-1.203,1.031h-1.692l-1.229,4.066h1.629
	c0.715,0,1.293,0.574,1.293,1.283v6.742c0,0.709-0.578,1.283-1.293,1.283H1.793c-0.714,0-1.293-0.574-1.293-1.283v-6.742
	c0-0.709,0.579-1.283,1.293-1.283h0.344l3.979-13.268H3.195c-0.714,0-1.293-0.574-1.293-1.285V7.791
	c0-0.709,0.579-1.285,1.293-1.285h19.946c0.715,0,1.294,0.576,1.294,1.285v9.842C24.435,18.344,23.855,18.918,23.141,18.918z
	 M21.361,9.502H4.866c-0.625,0-1.132,0.504-1.132,1.123c0,0.621,0.507,1.125,1.132,1.125h16.495c0.625,0,1.133-0.504,1.133-1.125
	C22.494,10.006,21.986,9.502,21.361,9.502z M17.643,20.309h1.617c0.477,0,0.862,0.383,0.862,0.855v4.281
	c0,0.473-0.386,0.855-0.862,0.855h-1.617c-0.477,0-0.863-0.383-0.863-0.855v-4.281C16.779,20.691,17.166,20.309,17.643,20.309z"/>
</svg>
