<?xml version="1.0" encoding="utf-8"?>
<!-- Generator: Adobe Illustrator 16.0.0, SVG Export Plug-In . SVG Version: 6.00 Build 0)  -->
<!DOCTYPE svg PUBLIC "-//W3C//DTD SVG 1.1//EN" "http://www.w3.org/Graphics/SVG/1.1/DTD/svg11.dtd">
<svg version="1.1" id="图层_1" xmlns="http://www.w3.org/2000/svg" xmlns:xlink="http://www.w3.org/1999/xlink" x="0px" y="0px"
	 width="48px" height="48px" viewBox="0 0 48 48" enable-background="new 0 0 48 48" xml:space="preserve">
<path fill-rule="evenodd" clip-rule="evenodd" fill="#F1483A" d="M4.366,44.509h25.077c1.859,0,3.365-1.632,3.365-3.644v-1.714
	c0-2.013-1.506-3.644-3.365-3.644H4.366c-1.858,0-3.364,1.631-3.364,3.644v1.714C1.002,42.877,2.508,44.509,4.366,44.509z
	 M27.006,38.518c0.867,0,1.568,0.748,1.568,1.672c0,0.923-0.701,1.672-1.568,1.672c-0.865,0-1.567-0.749-1.567-1.672
	C25.438,39.266,26.141,38.518,27.006,38.518z M6.791,38.518c0.873,0,1.581,0.748,1.581,1.672c0,0.923-0.708,1.672-1.581,1.672
	S5.21,41.112,5.21,40.189C5.21,39.266,5.918,38.518,6.791,38.518z M7.545,34.257h13.088c1.291,0,2.336-1.119,2.336-2.5v-3.501
	c0-1.381-1.045-2.5-2.336-2.5h-2.116h-7.788H7.545c-1.211,0-2.207,0.987-2.324,2.25h7.699c0.452,0,0.818,0.393,0.818,0.875
	c0,0.483-0.366,0.876-0.818,0.876H5.209v2C5.209,33.138,6.255,34.257,7.545,34.257z M33.547,9.129c1.59-1.254,3.389-0.25,3.389-0.25
	l7.596,6.001l-10.166,5.75c2.981,3.333,6.543,2.251,6.543,2.251s4.125-1.194,5.96-3.751c0,0,0.358-3.446-0.116-5L36.118,3.878
	c-0.794-0.79-1.87-0.125-1.87-0.125l-23.52,22.003h7.788L33.547,9.129z"/>
</svg>
