<?xml version="1.0" encoding="utf-8"?>
<!-- Generator: Adobe Illustrator 16.0.0, SVG Export Plug-In . SVG Version: 6.00 Build 0)  -->
<!DOCTYPE svg PUBLIC "-//W3C//DTD SVG 1.1//EN" "http://www.w3.org/Graphics/SVG/1.1/DTD/svg11.dtd">
<svg version="1.1" id="图层_1" xmlns="http://www.w3.org/2000/svg" xmlns:xlink="http://www.w3.org/1999/xlink" x="0px" y="0px"
	 width="48px" height="48px" viewBox="0 0 48 48" enable-background="new 0 0 48 48" xml:space="preserve">
<g>
	<g>
		<path fill-rule="evenodd" clip-rule="evenodd" fill="#00A0FF" d="M2.475,15.754l20.863,11.378
			c0.211,0.116,0.442,0.171,0.673,0.171c0.227,0,0.457-0.055,0.668-0.171l21.083-11.378c0.463-0.247,0.744-0.729,0.738-1.258
			c-0.005-0.522-0.301-1-0.769-1.236L24.87,2.65c-0.396-0.201-0.869-0.201-1.271,0L2.52,13.265
			c-0.467,0.236-0.769,0.709-0.773,1.237C1.736,15.02,2.018,15.507,2.475,15.754z M45.49,22.607l-4.17-2.122l-2.707,1.624
			l3.512,1.785L23.774,33.945L5.635,23.91l3.742-1.886l-2.697-1.64l-4.406,2.218c-0.467,0.236-0.769,0.709-0.774,1.231
			c-0.01,0.523,0.276,1.011,0.734,1.257l20.862,11.384c0.211,0.116,0.441,0.171,0.674,0.171c0.226,0,0.457-0.055,0.668-0.171
			l21.083-11.378c0.462-0.247,0.743-0.734,0.739-1.257C46.249,23.321,45.953,22.844,45.49,22.607z M45.49,31.457l-3.953-1.945
			l-0.563,1.624l1.15,1.608L23.774,42.796L5.635,32.765l1.336-1.579l-0.552-1.639l-4.145,1.91c-0.467,0.236-0.769,0.709-0.774,1.232
			c-0.01,0.522,0.276,1.011,0.734,1.262L23.096,45.33c0.211,0.115,0.441,0.171,0.674,0.171c0.226,0,0.457-0.056,0.668-0.171
			l21.083-11.379c0.462-0.246,0.743-0.729,0.739-1.257C46.249,32.171,45.953,31.699,45.49,31.457z"/>
	</g>
</g>
</svg>
