<?xml version="1.0" encoding="utf-8"?>
<!-- Generator: Adobe Illustrator 16.0.0, SVG Export Plug-In . SVG Version: 6.00 Build 0)  -->
<!DOCTYPE svg PUBLIC "-//W3C//DTD SVG 1.1//EN" "http://www.w3.org/Graphics/SVG/1.1/DTD/svg11.dtd">
<svg version="1.1" id="形状_2_拷贝_3_1_" xmlns="http://www.w3.org/2000/svg" xmlns:xlink="http://www.w3.org/1999/xlink"
	 x="0px" y="0px" width="68px" height="44px" viewBox="0 0 68 44" enable-background="new 0 0 68 44" xml:space="preserve">
<g id="形状_2_拷贝_3">
	<g>
		<path fill-rule="evenodd" clip-rule="evenodd" fill="#00A0FF" d="M35.813,16.736c-1.526,0-2.769,1.209-2.769,2.693
			s1.242,2.693,2.769,2.693s2.769-1.209,2.769-2.693S37.34,16.736,35.813,16.736z M63.836,1h-38.42C23.119,1,21,1.229,21,5v3h4V7
			c0-2.576,1.828-2,3-2h34c1.169,0,2,0.846,2,2v25c0,1.387-0.831,2-2,2h-8l-3.706,3.755L47,34h-9v5h7l5.293,4L55,39h9
			c2.297,0,4-1.538,4-3.771V5.047C68,2.816,66.133,1,63.836,1z M56.206,19.43c0-1.484-1.242-2.693-2.77-2.693
			c-1.526,0-2.769,1.209-2.769,2.693s1.242,2.693,2.769,2.693C54.964,22.123,56.206,20.914,56.206,19.43z M47.394,19.43
			c0-1.484-1.242-2.693-2.768-2.693c-1.526,0-2.771,1.209-2.771,2.693s1.244,2.693,2.771,2.693
			C46.151,22.123,47.394,20.914,47.394,19.43z M18.192,25.827c5.02,0,9.09-3.854,9.09-8.589c0-4.751-4.07-8.588-9.09-8.588
			c-5.022,0-9.091,3.837-9.091,8.588C9.101,21.974,13.17,25.827,18.192,25.827z M33.028,32.813c-2.27-1.623-8.815-2.696-8.815-2.696
			s-4.251,4.844-6.056,4.844c-1.803,0-6.047-4.844-6.047-4.844s-6.553,1.073-8.825,2.696C1.013,34.428,0.011,43,0.011,43h36.361
			C36.372,43,35.705,34.714,33.028,32.813z"/>
	</g>
</g>
</svg>
