<?xml version="1.0" encoding="utf-8"?>
<!-- Generator: Adobe Illustrator 16.0.0, SVG Export Plug-In . SVG Version: 6.00 Build 0)  -->
<!DOCTYPE svg PUBLIC "-//W3C//DTD SVG 1.1//EN" "http://www.w3.org/Graphics/SVG/1.1/DTD/svg11.dtd">
<svg version="1.1" id="形状_2_拷贝_2_1_" xmlns="http://www.w3.org/2000/svg" xmlns:xlink="http://www.w3.org/1999/xlink"
	 x="0px" y="0px" width="68px" height="44px" viewBox="0 0 68 44" enable-background="new 0 0 68 44" xml:space="preserve">
<g id="形状_2_拷贝_2">
	<g>
		<path fill-rule="evenodd" clip-rule="evenodd" fill="#00A0FF" d="M40,14v3h15v-3H40z M40,23h19v-3H40V23z M40,29h11v-3H40V29z
			 M24,1h-4v4v2h4V5h40v29H38v4h30V1H24z M18.192,26.418c5.02,0,9.09-3.945,9.09-8.793c0-4.864-4.07-8.793-9.09-8.793
			c-5.022,0-9.091,3.929-9.091,8.793C9.101,22.473,13.17,26.418,18.192,26.418z M33.028,33.571c-2.27-1.662-8.815-2.761-8.815-2.761
			s-4.251,4.959-6.056,4.959c-1.803,0-6.047-4.959-6.047-4.959s-6.553,1.099-8.825,2.761C1.013,35.224,0.011,44,0.011,44h36.361
			C36.372,44,35.705,35.517,33.028,33.571z"/>
	</g>
</g>
</svg>
